<svg id="Capa_1" data-name="Capa 1" xmlns="http://www.w3.org/2000/svg" xmlns:xlink="http://www.w3.org/1999/xlink" viewBox="0 0 1133.86 1133.86"><defs><style>.cls-1,.cls-14{fill:none;}.cls-2{fill:#22324c;}.cls-3{fill:#304367;}.cls-4{fill:#f0c69e;}.cls-5{fill:#e7996e;}.cls-6{fill:#212031;}.cls-7{fill:#c4415a;}.cls-8{fill:#fff;}.cls-9{clip-path:url(#clip-path);}.cls-10{fill:#e2b686;}.cls-11{fill:#e3b686;}.cls-12{fill:#440606;}.cls-13{fill:#760c0c;}.cls-14{stroke:#fff;stroke-miterlimit:10;stroke-width:0.5px;}.cls-15{fill:#380000;}.cls-16{fill:#e3b58a;}.cls-17{fill:#261b19;}.cls-18{fill:#c69167;}.cls-19{fill:#3d0b01;}.cls-20{fill:#e8e9e8;}.cls-21{fill:#764934;}.cls-22{fill:#262324;}.cls-23{fill:#97330c;}</style><clipPath id="clip-path"><rect class="cls-1" x="-87.69" y="-404" width="1275.28" height="1555.96"/></clipPath></defs><title>Mesa de trabajo 1</title><path class="cls-2" d="M463.69,1029.22s97.36,70.42,184.5-26.13l-23.08-51.2S561,943,543.68,1004.53C543.68,1004.53,475.94,951.45,463.69,1029.22Z"/><path class="cls-3" d="M677.73,1086.67c-4.45-51.81-28.2-92.46-56.14-107.24-13.1-6.93-29.48-10-40.88-4.53-28.81,13.92-28.81,65.4-28.81,65.4s-20.25-33-30.81-42.63c-14-12.71-35.17-8.18-45.71,7.24-12.9,18.88-30.83,81.76-30.83,81.76s-94.66-46.45-137-137.29c-48.06-103,13.85-203.55,13.85-203.55v-.06a155.94,155.94,0,0,0,13.74-13c8-8.56,16.27-11,23.68-10.45,14.61,1.05,26,13.72,26,13.72l291.88-13.86c19.19-.89,38-6.12,54.1-16a22.83,22.83,0,0,1,11.58-3.74c7.2-.08,15.08,4.21,22.51,17.35C852.41,945.37,677.73,1086.67,677.73,1086.67Z"/><path class="cls-4" d="M741.74,725.43c-13.53,2-25.41-9-25.41-22V451H384.77V723.73c0,13-11.91,22.78-25.55,21.58l-.44,0V760.4c0,60.92,31.05,115.63,79.07,149.47h-.09s43.09,30,74.89,46.68a32.61,32.61,0,0,1,13.14,12.56l16.47,28.56s-2.94-34.21,44.75-49.61c53.13-17.16,79-39.44,79-39.44H666c46.37-33.26,76.36-86,76.36-145.51V725.37A4.39,4.39,0,0,0,741.74,725.43Z"/><path class="cls-4" d="M550.55,671.28h0c-122,0-220.82-93.95-220.82-209.84V265c0-115.89,98.86-209.84,220.82-209.84h0c122,0,220.82,93.95,220.82,209.84V461.44C771.36,577.33,672.5,671.28,550.55,671.28Z"/><path class="cls-5" d="M550.55,671.28a194,194,0,0,1-57.25-4.13c-4.72-1-9.33-2.35-14-3.59s-9.12-3-13.69-4.55c-2.31-.7-4.46-1.78-6.68-2.69l-6.62-2.84c-4.39-1.94-8.59-4.25-12.89-6.36-4.21-2.26-8.22-4.87-12.34-7.29s-7.89-5.34-11.79-8-7.41-5.92-11.11-8.86-7-6.37-10.41-9.58a174.75,174.75,0,0,1-33-44.62,271.88,271.88,0,0,0,37.4,40.41c3.58,2.89,7,5.9,10.61,8.77,3.71,2.72,7.32,5.56,11.1,8.17s7.59,5.2,11.53,7.59,7.91,4.74,12,6.89,8.14,4.37,12.35,6.29,8.44,3.84,12.75,5.55,8.63,3.45,13.06,4.89l6.67,2.11c2.23.68,4.41,1.56,6.69,2.07A295.08,295.08,0,0,0,550.55,671.28Z"/><path class="cls-5" d="M747.83,555.79A117.23,117.23,0,0,1,735.07,582c-1.34,2.05-2.7,4.1-4.12,6.11L726.53,594c-1.53,1.93-3.17,3.79-4.75,5.69l-5,5.51a154.79,154.79,0,0,1-22.62,19.47,127.49,127.49,0,0,1-26.27,14.52c7.59-6.4,15.08-12.6,22.28-19.05s14.08-13.14,20.72-20l4.94-5.2c1.6-1.78,3.15-3.59,4.79-5.34l4.72-5.41c1.49-1.87,3-3.69,4.61-5.51C736.06,571.25,741.85,563.58,747.83,555.79Z"/><path class="cls-5" d="M318.77,346.71a16.07,16.07,0,0,0-9.24,8.12,34.68,34.68,0,0,0-3.6,11.46,55.46,55.46,0,0,0,1.78,23.79,30.35,30.35,0,0,0,5.3,10.14,13.86,13.86,0,0,0,3.68,3.31c.21.1.33.13.31.17s-.15.11-.11.14.61-.43,1-1.13a22.63,22.63,0,0,0,1.69-5.45c.42-2,.65-4.1.91-6.21.49-4.23.73-8.53,1.06-12.88A71.91,71.91,0,0,1,324.18,391a53.13,53.13,0,0,1,.34,6.68,21.7,21.7,0,0,1-1.1,7.14,8.2,8.2,0,0,1-2.93,4.05A6.45,6.45,0,0,1,317.2,410a7.93,7.93,0,0,1-3-.45,18.24,18.24,0,0,1-6.78-4.74,32.29,32.29,0,0,1-7.3-12.52,46.86,46.86,0,0,1-.36-27.27,32.43,32.43,0,0,1,6.48-12.34,20,20,0,0,1,5.65-4.46A13.65,13.65,0,0,1,318.77,346.71Z"/><path class="cls-5" d="M326.79,365.13a37.8,37.8,0,0,1-2.21-7.68c-.46-2.42-.76-4.74-1.09-6.88a26.06,26.06,0,0,0-1.24-5.49,4.47,4.47,0,0,0-1.48-2,12.6,12.6,0,0,0-3.56-1.68,7.2,7.2,0,0,1,4.35-2,7.81,7.81,0,0,1,5.32,1.66,12.86,12.86,0,0,1,4.5,8.43,19.94,19.94,0,0,1-.56,8.26A17.66,17.66,0,0,1,326.79,365.13Z"/><path class="cls-5" d="M784.07,346.71a13.66,13.66,0,0,1,6.89,1.53,20,20,0,0,1,5.65,4.46A32.43,32.43,0,0,1,803.08,365a46.86,46.86,0,0,1-.36,27.27,32.29,32.29,0,0,1-7.3,12.52,18.24,18.24,0,0,1-6.78,4.74,7.93,7.93,0,0,1-3,.45,6.45,6.45,0,0,1-3.29-1.12,8.2,8.2,0,0,1-2.93-4.05,21.71,21.71,0,0,1-1.1-7.14,53.13,53.13,0,0,1,.34-6.68,71.88,71.88,0,0,1,2.67-12.87c.33,4.36.57,8.66,1.06,12.88.25,2.11.49,4.2.91,6.21A22.63,22.63,0,0,0,785,402.7c.36.7.89,1.21,1,1.13s-.09-.11-.11-.14.1-.06.31-.17a13.86,13.86,0,0,0,3.68-3.31,30.35,30.35,0,0,0,5.3-10.14,55.46,55.46,0,0,0,1.78-23.79,34.68,34.68,0,0,0-3.6-11.46A16.07,16.07,0,0,0,784.07,346.71Z"/><path class="cls-5" d="M776.05,365.13a17.65,17.65,0,0,1-4-7.38,19.94,19.94,0,0,1-.56-8.26,12.86,12.86,0,0,1,4.5-8.43,7.81,7.81,0,0,1,5.32-1.66,7.2,7.2,0,0,1,4.35,2,12.6,12.6,0,0,0-3.56,1.68,4.47,4.47,0,0,0-1.48,2,26.06,26.06,0,0,0-1.24,5.49c-.33,2.14-.63,4.46-1.09,6.88A37.8,37.8,0,0,1,776.05,365.13Z"/><ellipse class="cls-6" cx="668.84" cy="319.69" rx="19.88" ry="18.89"/><path class="cls-6" d="M709.85,301.32a84,84,0,0,0-19.81-8.7,68.64,68.64,0,0,0-21-2.86,40.52,40.52,0,0,0-5.3.29l-2.65.22c-.88.09-1.74.34-2.62.47l-5.26.95c-1.7.53-3.42,1-5.15,1.48l-2.6.72-2.5,1-5.08,1.92c-3.34,1.41-6.55,3.12-10,4.53a107.83,107.83,0,0,1,8.77-6.7l4.88-2.75,2.48-1.34,2.63-1.05c1.76-.7,3.53-1.39,5.32-2s3.71-.92,5.57-1.39c.93-.22,1.86-.47,2.82-.6l2.88-.3a43.85,43.85,0,0,1,5.77-.43,56.93,56.93,0,0,1,22.52,4.22A50,50,0,0,1,709.85,301.32Z"/><ellipse class="cls-6" cx="460.23" cy="319.69" rx="19.88" ry="18.89"/><path class="cls-6" d="M501.24,301.32a84,84,0,0,0-19.81-8.7,68.64,68.64,0,0,0-21-2.86,40.52,40.52,0,0,0-5.3.29l-2.65.22c-.88.09-1.74.34-2.62.47l-5.26.95c-1.7.53-3.42,1-5.15,1.48l-2.6.72-2.5,1-5.08,1.92c-3.34,1.41-6.55,3.12-10,4.53a107.93,107.93,0,0,1,8.77-6.7l4.88-2.75,2.48-1.34,2.63-1.05c1.76-.7,3.53-1.39,5.32-2s3.71-.92,5.57-1.39c.93-.22,1.86-.47,2.82-.6l2.88-.3a43.85,43.85,0,0,1,5.77-.43,56.93,56.93,0,0,1,22.52,4.22A50,50,0,0,1,501.24,301.32Z"/><path class="cls-6" d="M588.22,362.87c2.29,7.94,4.06,16,5.64,24S596.79,403,598,411.05c.55,3.92,1.3,8.38.8,12.71a32.57,32.57,0,0,1-3.73,12.48,22.12,22.12,0,0,1-9.39,9.46c-3.9,1.79-7.78,3.55-11.79,5.14,3.4-2.55,7-4.9,10.45-7.27a20.65,20.65,0,0,0,7-9,32.3,32.3,0,0,0,2.47-11.16c.3-3.84-.37-7.53-1-11.67-1.15-8.1-2.23-16.2-3-24.35S588.33,371.1,588.22,362.87Z"/><path class="cls-7" d="M592.22,496.76C588,506.1,580.46,513.19,570.85,518a51.34,51.34,0,0,1-7.65,3,50.37,50.37,0,0,1-8.36,1.64,47.83,47.83,0,0,1-17.42-1.19,49.12,49.12,0,0,1-27.24-18,48.08,48.08,0,0,1-7.06-13.32,35.4,35.4,0,0,1-1.89-14.76c3.05,1.82,5.92,3.56,8.63,5.22,5.28,3.2,10,6.08,14.71,8.55a85.34,85.34,0,0,0,19.62,8,60.17,60.17,0,0,0,9.74,1.61c1.67.23,3.45.18,5.26.35,1.83-.1,3.74.1,5.68-.08,2.31-.05,4.67-.2,7.14-.43C578,498,584.65,497.24,592.22,496.76Z"/><path class="cls-8" d="M572,498.55a37.85,37.85,0,0,1-57-5.88,35.06,35.06,0,0,1-5-11.08c-.08-.35-.16-.68-.21-1,5.28,3.2,10,6.08,14.71,8.55a85.34,85.34,0,0,0,19.62,8,60.17,60.17,0,0,0,9.74,1.61c1.67.23,3.45.18,5.26.35,1.83-.1,3.74.1,5.68-.08C567.18,498.93,569.54,498.78,572,498.55Z"/><path class="cls-6" d="M709.85,248.67c-9.15-.51-16.1-1.06-22.69-1.25s-12.23-.43-18-.22a10.3,10.3,0,0,0-2.16,0l-2.17.09c-.73,0-1.46,0-2.2,0s-1.47.14-2.22.16c-1.49.12-3,.11-4.6.13-1.55.18-3.14.3-4.81.35-.82,0-1.69,0-2.55,0s-1.68.21-2.57.25c-1.75.15-3.58.21-5.5.24a88.94,88.94,0,0,1-12.55.18,32.77,32.77,0,0,1,2.7-5.82,34.29,34.29,0,0,1,3.55-5.22c1.4-1.52,2.88-3,4.46-4.42.77-.74,1.59-1.4,2.41-2.08s1.76-1.2,2.68-1.75c1.82-1.13,3.72-2.17,5.66-3.17,2-.83,4.11-1.54,6.23-2.21,1.06-.33,2.12-.67,3.21-.91l3.33-.53a40.59,40.59,0,0,1,6.73-.58,46.92,46.92,0,0,1,25.54,6.86,23.86,23.86,0,0,1,2.68,1.85c.87.64,1.73,1.28,2.54,2a43.39,43.39,0,0,1,4.48,4.57A27,27,0,0,1,709.85,248.67Z"/><path class="cls-6" d="M501.24,248.67c-9.15-.51-16.1-1.06-22.69-1.25s-12.23-.43-18-.22a10.3,10.3,0,0,0-2.16,0l-2.17.09c-.73,0-1.46,0-2.2,0s-1.47.14-2.22.16c-1.49.12-3,.11-4.6.13-1.55.18-3.14.3-4.81.35-.82,0-1.69,0-2.55,0s-1.68.21-2.57.25c-1.75.15-3.59.21-5.5.24a88.94,88.94,0,0,1-12.55.18,32.75,32.75,0,0,1,2.7-5.82,34.33,34.33,0,0,1,3.55-5.22c1.4-1.52,2.88-3,4.46-4.42.77-.74,1.59-1.4,2.41-2.08s1.76-1.2,2.68-1.75c1.82-1.13,3.72-2.17,5.66-3.17,2-.83,4.11-1.54,6.23-2.21,1.06-.33,2.12-.67,3.21-.91l3.33-.53a40.59,40.59,0,0,1,6.73-.58,46.92,46.92,0,0,1,25.54,6.86,23.86,23.86,0,0,1,2.68,1.85c.87.64,1.73,1.28,2.54,2a43.42,43.42,0,0,1,4.48,4.57A27,27,0,0,1,501.24,248.67Z"/><g class="cls-9"><path class="cls-10" d="M759.65,318s34.47-24.86,49.68,9.92,19.1,88.46-20.75,109.34-35.74-3.48-35.91-5.17S759.65,318,759.65,318Z"/><path class="cls-10" d="M333.09,328.68s-24.81-40.59-45.11.75c-15,30.59-17.27,80.86,13.14,100.48s27.89-2.76,28.07-4.31S333.09,328.68,333.09,328.68Z"/><path class="cls-11" d="M572.82,817.44,673,792.05V715.42H412.11s-17,32.34-4.33,78c16.4,59.1,149.71,27.43,149.71,27.43"/><path class="cls-12" d="M835.91,632.76C759,530.58,763.62,423.58,765.16,408s-3.53-229-3.53-229S723.49,80.6,629.71,62.58c-74.62-14.35-129.52-4.25-171.62,10.56C418.95,76.58,330.72,137,333.52,284.35c0,0,8.84,62.3,11.9,148.86,0,0-130.7,171.9,12.3,263.27S636,833.53,645.23,884C645.23,884,912.79,735,835.91,632.76Z"/><path class="cls-13" d="M645.23,884s3.32-1.85,8.87-5.14c-2-30.51-13.24-66.48-28.37-107.62-39.25-106.71-238-82-284.75-143.4-34.71-45.55-22.67-126.77-14.18-165.61-30.06,53-75.84,166,30.91,234.22C500.7,787.85,636,833.53,645.23,884Z"/><path class="cls-14" d="M411.65,467.24s-91,121.61,4.39,206.65S669.09,813.59,644,879.3"/><path class="cls-14" d="M488.39,529.82s-22.41,64,89.88,153.06S645.85,873,645.85,873"/><path class="cls-15" d="M734.71,449.86s-4.47,81,17.27,112.48S737.9,371.9,734.71,449.86Z"/><path class="cls-15" d="M785.68,578.84s35,52,47.77,80-38.81,106.38-57.58,116.39-6.4-41,7.67-77S743,525.16,785.68,578.84Z"/><path class="cls-16" d="M357.55,150.09c-32.64,62-24.09,130.83-24.09,130.83L327.11,492s-4.18,72.93,73.37,84.34c43.81,6.45,94.12.61,148.95-6.85,48.16-6.56,115.41,33.32,150.18,13.69,59.09-33.36,70.57-105,70.57-105s-7.57-148.12-.07-190.25c19.28-108.35-30.59-159-30.59-159S687.15,49.59,556.45,53.37C500.33,55,400.1,69.24,357.55,150.09Z"/><path class="cls-17" d="M504,254.15,520,184.33,504,210.85l-15.95-37.91L348.26,229.82l6.13,24.33s52.6-10.84,70.13-10.84C444.4,243.31,504,254.15,504,254.15Z"/><path class="cls-17" d="M583.77,255.62V187l23.3,59,6.14-59,139.29,50.55L735.83,277.1S654.4,226.56,583.77,255.62Z"/><path class="cls-18" d="M570.36,567.59l-1-10c15.9-1.69,28.35-8.13,37-19.19,14-17.83,14.79-43.1,14.47-53.28H542.06V315.69l59.26-44,5.74,8.18-55.19,41V475h78l.48,4.49c.17,1.63,4,39.33-16.36,65.25C603.64,557.92,589,565.62,570.36,567.59Z"/><path class="cls-19" d="M452.88,593.54s81.72,102.78,196.68-8.47c0,0-18.67,105.22-96.17,111.64S452.88,593.54,452.88,593.54Z"/><path class="cls-8" d="M544.44,651.34c52.12-4.26,105.12-66.27,105.12-66.27-110.69,100.9-196.68,8.47-196.68,8.47S492.32,655.63,544.44,651.34Z"/><path class="cls-17" d="M466.8,311.52c0,13.93-11,25.26-24.49,25.26s-24.53-11.34-24.53-25.26,11-25.25,24.53-25.25S466.8,297.58,466.8,311.52Z"/><path class="cls-17" d="M692.62,311.52c0,13.93-11,25.26-24.51,25.26s-24.49-11.34-24.49-25.26,11-25.25,24.49-25.25S692.62,297.58,692.62,311.52Z"/><path class="cls-20" d="M622.19,314.73c-.29,1.47,5.79,19.66,16.87,26.79,24.89,16,69.94,21,88.6-26.79,0,0-13.32-36.7-56-36.19S626.95,290.59,622.19,314.73Z"/><path class="cls-21" d="M643,316.17c0-14.25,12.48-25.79,27.85-25.79s27.81,11.54,27.81,25.79-12.45,25.78-27.81,25.78S643,330.41,643,316.17Z"/><ellipse class="cls-22" cx="670.89" cy="316.16" rx="16.29" ry="15.1"/><path class="cls-8" d="M674,314.14a4.87,4.87,0,1,1,4.88,4.51A4.72,4.72,0,0,1,674,314.14Z"/><path class="cls-8" d="M669.63,309.63a2.65,2.65,0,1,1,2.65,2.47A2.56,2.56,0,0,1,669.63,309.63Z"/><path class="cls-20" d="M491.52,311.12c.29,1.47-5.82,19.66-16.87,26.79-24.89,16-69.94,21-88.59-26.79,0,0,13.31-36.7,56-36.19S486.77,287,491.52,311.12Z"/><path class="cls-21" d="M417.08,312.56c0-14.25,12.48-25.79,27.84-25.79s27.81,11.54,27.81,25.79-12.45,25.78-27.81,25.78S417.08,326.79,417.08,312.56Z"/><path class="cls-22" d="M428.61,312.55c0-8.34,7.3-15.1,16.31-15.1s16.29,6.76,16.29,15.1-7.31,15.1-16.29,15.1S428.61,320.88,428.61,312.55Z"/><path class="cls-8" d="M448.05,310.53a4.87,4.87,0,1,1,4.87,4.51A4.69,4.69,0,0,1,448.05,310.53Z"/><path class="cls-8" d="M443.63,306a2.66,2.66,0,0,1,5.31,0,2.66,2.66,0,0,1-5.31,0Z"/><path class="cls-18" d="M781.09,410.25v-6.92a11.18,11.18,0,0,0,8-4.14c3-3.85,3.19-9.3,3.12-11.49H769.91V351.16l19.13-10,.17,6.45-13.08,6.45V381.7l23.51-.15s1.49,15-4.42,21C790.83,407,785.1,409.83,781.09,410.25Z"/><path class="cls-18" d="M311.73,410.25v-6.92a11.18,11.18,0,0,1-8-4.14c-3-3.85-3.19-9.3-3.12-11.49h22.29V351.16l-19.13-10-.17,6.45,13.08,6.45V381.7l-23.51-.15s-1.49,15,4.42,21C302,407,307.72,409.83,311.73,410.25Z"/></g><path class="cls-17" d="M314.83,393c-9.28,0-16.8,7.28-16.8,16.25s7.52,16.25,16.8,16.25,16.8-7.28,16.8-16.25S324.11,393,314.83,393Zm0,25.21a9,9,0,1,1,9.26-9A9.11,9.11,0,0,1,314.83,418.24Z"/><ellipse class="cls-23" cx="314.75" cy="409.41" rx="9.26" ry="8.96"/><path class="cls-17" d="M782.63,393c-9.28,0-16.8,7.28-16.8,16.25s7.52,16.25,16.8,16.25,16.8-7.28,16.8-16.25S791.91,393,782.63,393Zm0,25.21a9,9,0,1,1,9.26-9A9.11,9.11,0,0,1,782.63,418.24Z"/><ellipse class="cls-23" cx="782.54" cy="409.41" rx="9.26" ry="8.96"/></svg>