<!-- Generator: Adobe Illustrator 19.0.0, SVG Export Plug-In  -->
<svg version="1.1"
	 xmlns="http://www.w3.org/2000/svg" xmlns:xlink="http://www.w3.org/1999/xlink" xmlns:a="http://ns.adobe.com/AdobeSVGViewerExtensions/3.0/"
	 x="0px" y="0px" width="150.5px" height="151px" viewBox="0 0 150.5 151" style="enable-background:new 0 0 150.5 151;"
	 xml:space="preserve">
<style type="text/css">
	.st0{fill:#D8D8D8;}
	.st1{filter:url(#Adobe_OpacityMaskFilter);}
	.st2{fill:#FFFFFF;}
	.st3{mask:url(#mask-2_1_);}
	.st4{fill:#33A9DC;}
	.st5{display:none;fill-opacity:0.2;stroke:#979797;}
	.st6{filter:url(#Adobe_OpacityMaskFilter_1_);}
	.st7{mask:url(#mask-2_6_);}
</style>
<defs>
</defs>
<g id="Page-1_1_">
	<g id="Artboard-1_1_">
	</g>
	<g id="Group_1_">
		<g id="Mask_1_">
			<circle id="path-1_3_" class="st0" cx="74.1" cy="74.1" r="74.1"/>
		</g>
		<defs>
			<filter id="Adobe_OpacityMaskFilter" filterUnits="userSpaceOnUse" x="0" y="0" width="150.5" height="151">
				<feColorMatrix  type="matrix" values="1 0 0 0 0  0 1 0 0 0  0 0 1 0 0  0 0 0 1 0"/>
			</filter>
		</defs>
		<mask maskUnits="userSpaceOnUse" x="0" y="0" width="150.5" height="151" id="mask-2_1_">
			<g id="XMLID_17_" class="st1">
				<circle id="path-1_2_" class="st2" cx="74.1" cy="74.1" r="74.1"/>
			</g>
		</mask>
		<g id="XMLID_15_" class="st3">
			<path id="XMLID_22_" class="st4" d="M94.3,147.2c5.4-1.8,10.8-3.4,16.1-5.5c2.4-1,4.8-2,7.1-3.1c1.8-1.2,3.6-2.3,5.3-3.6
				c4.9-3.5,8.5-8.1,11.8-13.2c3.6-5.5,6.5-11.4,8.9-17.5c1.6-4.1,3.2-8.3,4.6-12.5V0H0v148.2h91.6
				C92.5,147.9,93.4,147.5,94.3,147.2z"/>
			<path id="XMLID_18_" class="st5" d="M94.3,147.2c5.4-1.8,10.8-3.4,16.1-5.5c2.4-1,4.8-2,7.1-3.1c1.8-1.2,3.6-2.3,5.3-3.6
				c4.9-3.5,8.5-8.1,11.8-13.2c3.6-5.5,6.5-11.4,8.9-17.5c2.2-5.5,4.3-11.1,5.8-16.8c0.1-0.4,0.2-0.8,0.3-1.1
				c-0.2-0.7-0.3-1.6-0.1-2.5c0.2-0.7,0.3-1.3,0.3-2c0-0.3,0-0.6,0-0.9c0-0.3,0-0.6,0.1-0.9c-0.1-2.1-0.5-4.1-0.9-6.2
				c-0.1-0.7-0.1-1.4,0-2.1l-34.5-35l-15,13.6l-4.3,22.8l-3.5,16.5L66,97.8l-17.4-8.1l1.4-7.5c0,0-6.1,1.7-9,1.7H38l-4.9,13.9
				l53.2,52.6C88.9,149.1,91.6,148.2,94.3,147.2z"/>
			<polygon id="css3_2_" class="st2" points="45.3,37 42.6,50.8 98.3,50.8 96.6,59.6 40.8,59.6 38.1,73.3 93.9,73.3 90.7,89 
				68.3,96.4 48.8,89 50.1,82.2 36.4,82.2 33.1,98.6 65.4,111 102.5,98.6 107.5,73.9 108.5,68.9 114.8,37 			"/>
		</g>
	</g>
</g>
</svg>
