<?xml version="1.0" encoding="utf-8"?>
<!-- Generator: Adobe Illustrator 21.0.0, SVG Export Plug-In . SVG Version: 6.00 Build 0)  -->
<svg version="1.1" id="Capa_1" xmlns="http://www.w3.org/2000/svg" xmlns:xlink="http://www.w3.org/1999/xlink" x="0px" y="0px"
	 viewBox="0 0 500 500" style="enable-background:new 0 0 500 500;" xml:space="preserve">
<style type="text/css">
	.st0{fill:#C8D1E1;}
	.st1{fill:#00006F;}
	.st2{fill:#E3A030;}
	.st3{fill:#935B40;}
	.st4{fill:#F0C69E;}
	.st5{fill:#22324C;}
	.st6{fill:#304367;}
	.st7{fill:#A8A8C1;}
	.st8{fill:url(#SVGID_1_);}
	.st9{fill:url(#SVGID_2_);}
	.st10{fill:url(#SVGID_3_);}
	.st11{fill:url(#SVGID_4_);}
	.st12{fill:url(#SVGID_5_);}
	.st13{fill:url(#SVGID_6_);}
	.st14{fill:url(#SVGID_7_);}
	.st15{fill:url(#SVGID_8_);}
	.st16{fill:url(#SVGID_9_);}
	.st17{fill:url(#SVGID_10_);}
	.st18{fill:url(#SVGID_11_);}
	.st19{fill:url(#SVGID_12_);}
	.st20{fill:url(#SVGID_13_);}
	.st21{fill:url(#SVGID_14_);}
	.st22{fill:#F5F9FF;}
	.st23{fill:#E2B686;}
	.st24{fill:#E3B686;}
	.st25{fill:#440606;}
	.st26{fill:#760C0C;}
	.st27{fill:#380000;}
	.st28{fill:#E3B58A;}
	.st29{fill:#261B19;}
	.st30{fill:#C69167;}
	.st31{fill:#3D0B01;}
	.st32{fill:#FFFFFF;}
	.st33{fill:#97330C;}
	.st34{fill:#E8E9E8;}
</style>
<g>
	<path class="st0" d="M390,442.9h-11.6c0,0.1,0,0.2,0,0.3c-0.1,0.3-0.3,0.5-0.5,0.5c-3.5,0-32-0.6-32-0.6h-96.3
		c0,0-107,0.2-112.4,0.1c-5.4-0.1-11.9,0.2-16.1,0.5c-0.4-0.1-0.6-0.4-0.6-0.8H109c-4.5,0-5.7,2.4-1.3,2.9
		c47.5,5.8,235.8,5.8,283.4,0C395.6,445.3,394.5,442.9,390,442.9z"/>
	<path class="st1" d="M121,443.6c4.1-0.3,10.7-0.6,16.1-0.5c5.4,0.1,112.4-0.1,112.4-0.1h96.3c0,0,28.6,0.6,32,0.6
		c0.2,0,0.4-0.2,0.5-0.5c0-0.1,0-0.2,0-0.3c0-0.3-0.2-0.5-0.4-0.6c-2-0.5-20.4-0.9-42.7-1.1H154.3c-15.1,0.2-30.6,0.5-33.2,1.1
		c-0.3,0-0.5,0.2-0.7,0.6C120.4,443.2,120.7,443.6,121,443.6z"/>
	<path class="st2" d="M139.5,330.7l-0.7-9.8c0-0.2,0-0.3,0-0.5v-0.2c-0.2-2.2,1.5-4.2,3.7-4.3c0.1,0,0.2,0,0.4,0h19.7
		c-0.8-1-1.7-1.9-2.6-2.7c-1.4-1.4-3-2.7-4.7-3.9c-1.7-1.3-3.3-2.4-5-3.6c-1.7-1.1-3.5-2.2-5.4-3.1c-0.5-0.3-1-0.5-1.5-0.8l-0.8-0.4
		c-1-0.5-2.1-1-3.1-1.6s-1.7-1.1-2.6-1.7c-0.8-0.6-1.6-1.3-2.3-2.1c-0.3-0.4-0.6-0.9-0.9-1.3c-0.3-0.5-0.5-1-0.6-1.5
		c-0.3-0.8-0.4-1.8-0.1-2.6c0-0.2,0.1-0.4,0.2-0.5c0.5,3.9,3.6,7.2,6.7,9.5c0.8,0.6,1.6,1.1,2.4,1.5c0.9,0.6,1.7,1.1,2.7,1.7
		c1.7,1.1,3.6,1.9,5.5,2.9l1.3,0.8c4.9,2.4,9.1,5.8,12.6,9.9h6.5c1.2-4.1,2.1-8.3,2.6-12.5v-0.2c0.4-3.5,0.6-7.3,1.1-10.8
		c0,3.7-0.1,7.4-0.3,11c-0.2,3.7-0.3,7.4-0.5,10.9l-0.1,1.5h7.8c0.1-0.4,0.2-0.7,0.3-1.1l0.4-1.5c0.1-0.6,0.2-1.1,0.3-1.5
		c0.3-1.1,0.4-2,0.6-3.1c0.1-0.6,0.1-1.1,0.2-1.7l0.2-1.7c-0.1-1.1,0-2.1,0.1-3.2c0.1,1.1,0.1,2.1,0.2,3.2c0.1,1.1,0,2.1-0.1,3.2
		c-0.2,2.1-0.5,4.3-1,6.5l-0.3,1h137.6c-0.1-1.6-0.2-3.3-0.2-5c-0.1-3.6,0-7.2,0.3-10.7c0.2-3.5,0.7-7.1,1.5-10.6
		c0,0-1.7,18.5,2.9,14.9c3.4-2.6,7.3-8.2,11.9-13.4c1-1.2,2-2.3,3.1-3.4l5-5l2.5-2.5c0.8-0.8,1.7-1.7,2.4-2.5l0.3-0.3
		c2.6-3.4,5.1-7.9,4-11.7c0.4,0.5,0.6,1,0.8,1.5c0.3,0.6,0.4,1.2,0.6,1.8c0.2,1.2,0,2.5-0.6,3.6c-0.5,1.1-1.2,2.1-1.9,3
		c-0.7,0.9-1.7,1.7-2.4,2.6c-1.7,1.7-3.6,3.1-5.4,4.7c-1.7,1.7-3.3,3.3-4.9,5.1c-3,3.5-5.8,7.4-8,11.5l-0.5,0.8l-0.4,0.8
		c-0.3,0.6-0.6,1.1-0.8,1.5l-1.5,3.2c-0.6,1.5-1.2,3.1-1.7,4.6c-0.4,1.7-0.6,3.5-0.7,5.4h12.4c2.4-2.9,4.3-5.6,4.3-5.6
		c-0.8,1.9-1.8,3.7-2.9,5.6h19.4c2.2,0,4.1,1.7,4.1,4c0.1,0.4,0.1,0.7,0.1,1.1v0.6c0,0.4,0,0.8,0,1.2l1.1-0.4l0,0
		c1.2-0.7,1.9-1.1,1.9-1.1c-4.1-10.7-7-32.6-8.3-43.5c-0.4-3-0.1-6.2,1.1-9c2.4-6.3-5.1-9.9-5.1-9.9c-3.4-9.3-8.9-17.2-18.7-21.8
		c-4.2-1.6-8.6-2.9-13-3.8c-4,15.8-26.2,32.3-40,41.2c-5.8,12.8-13.6,19-13.6,19c0.4-3.1,0.3-6.3-0.2-9.3c-0.4-2.1-1.3-0.9-1.8-0.3
		c-6.1,7.4-22.3,15.5-34.3,2.3c-0.6,2-1,3.4-1,3.4l-0.2-0.1l-0.5,1.5c-6.5-4.1-11.9-9.5-16.3-15.9c-2.2-2.8-4.1-6-5.6-9.3
		c-3.5-8.4-4-17.7-1.3-26.4c-1.9-1.1-3.7-2.2-5.7-3.4c-0.4,0.2-0.8,0.3-1.1,0.5c-12.4,4.2-25.2,7.8-38,10.7
		c-10.3,2.3-18.5,9.8-23.3,19.2c-2.8,5.8-5.2,11.8-7,18c0,0-4.7,1.9-4.7,5.8c0,0.4,0,0.9,0.2,1.3c0.7,2.7,0.7,5.6,0,8.3
		c-2,7.5-6.7,22.2-9.3,31.1h0.1h0.1c0.7-0.1,3.8-0.3,8.2-0.3C131.6,330.4,135.5,330.4,139.5,330.7z M322.3,277.1
		c0.1-0.4,0.1-0.8,0.2-1.2l0.3-1.2c0.2-0.8,0.5-1.7,0.7-2.3c0.2-0.7,0.6-1.5,0.9-2.2c0.4-0.7,0.7-1.4,1.2-2.1c0.7-1.5,1.7-2.8,2.8-4
		c-0.8,1.5-1.7,2.7-2.3,4.2c-0.4,0.7-0.6,1.5-1,2.1c-0.3,0.7-0.6,1.5-0.8,2.2c-0.5,1.5-1,3-1.3,4.5c-0.4,1.6-0.6,3.1-0.8,4.7
		C322,280.3,322,278.7,322.3,277.1z M166,265.9c0.4,0.5,0.6,0.9,0.9,1.3c0.3,0.4,0.6,0.9,0.8,1.3c1,1.8,1.9,3.8,2.7,5.8
		c0.7,1.9,1.3,3.9,1.7,6c0.3,1,0.5,2,0.6,3c0.2,1.1,0.3,2,0.4,3.1c-0.3-1-0.6-2-0.8-3l-0.8-2.9c-0.4-1-0.6-1.9-1-2.9l-0.5-1.5
		l-0.6-1.5c-0.7-1.9-1.5-3.8-2.4-5.8c-0.5-0.9-1-1.8-1.5-2.7c-0.2-1-0.7-1.9-1.5-2.6C164.7,264.3,165.4,265.1,166,265.9z"/>
	<path class="st2" d="M247,290.6c1.7,0,3.3-0.2,5-0.5c1.6-0.2,3.2-0.6,4.7-1.2c1.6-0.5,3.1-1,4.5-1.7c1.5-0.7,2.9-1.6,4.2-2.6
		c0.7-0.5,1.3-1,1.8-1.7c0.6-0.6,1-1.2,1.4-1.9c-0.7-2.1-1.8-4.2-3.1-6.1c-14.3,16.7-30.3,4.4-30.3,4.4s0-0.2,0-0.3
		c-0.8,2.1-1.6,4.6-2.2,6.7l0.1,0.1l0.3,0.3c2.4,2,5.4,3.3,8.4,3.9C243.6,290.4,245.4,290.5,247,290.6z M265.6,279.8
		c0.2,0.4,0.3,0.9,0.4,1.3c0.1,0.4,0.1,0.9,0,1.3c0,0.5-0.2,0.9-0.4,1.3c-0.2-0.4-0.3-0.8-0.4-1.2c-0.1-0.4-0.2-0.8-0.2-1.2
		c0-1-0.1-1.7-0.1-2.5C265.3,279.2,265.5,279.5,265.6,279.8z M257.8,284c0.2,0.4,0.4,0.8,0.5,1.2c0.1,0.4,0.2,0.9,0.2,1.3
		c0,0.5,0,0.9-0.2,1.3c-0.2-0.4-0.4-0.8-0.6-1.2c-0.1-0.4-0.3-0.7-0.4-1.2c-0.1-0.8-0.3-1.5-0.4-2.3
		C257.2,283.4,257.5,283.7,257.8,284L257.8,284z M250.7,284.6c0.3,0.8,0.5,1.5,0.6,2.3c0.1,0.4,0.1,0.8,0.2,1.2
		c0.1,0.4,0.1,0.9,0,1.3c-0.3-0.3-0.5-0.7-0.7-1.1s-0.3-0.9-0.4-1.3c-0.1-0.4-0.1-0.9,0-1.3C250.4,285.3,250.5,284.9,250.7,284.6
		L250.7,284.6z M242.4,285.4c0.1-0.5,0.3-0.9,0.7-1.2c0.1,0.8,0.1,1.6,0.1,2.4c0,0.4,0,0.8-0.1,1.2c-0.1,0.4-0.2,0.9-0.3,1.3
		c-0.2-0.3-0.4-0.7-0.5-1.2c-0.1-0.4-0.1-0.9-0.1-1.3C242.2,286.3,242.2,285.8,242.4,285.4L242.4,285.4z M236.1,284.4l-0.3,1.2
		c-0.1,0.4-0.3,0.8-0.5,1.2c-0.2-0.4-0.3-0.9-0.3-1.3c0-0.4,0-0.9,0.1-1.3c0.1-0.4,0.2-0.8,0.5-1.2c0.2-0.4,0.5-0.8,0.9-1.1
		C236.4,282.7,236.3,283.5,236.1,284.4L236.1,284.4z"/>
	<path class="st3" d="M215.2,275c4.2,6.4,9.8,11.7,16.3,15.9l0.5-1.5C225.6,285.7,219.9,280.8,215.2,275z"/>
	<path class="st3" d="M270.6,289.4c-0.2-2.8-0.8-5.7-1.8-8.4c-0.7,1.5-1.7,2.8-3,3.8c-1.3,1.1-2.7,2-4.2,2.7
		c-2.9,1.6-6.2,2.7-9.5,3.2c-3.3,0.6-6.8,0.5-10.1-0.2c-1.6-0.4-3.2-1-4.7-1.7s-2.8-1.8-4-3l0.4,0.3l-0.3-0.3l-0.1-0.1l-0.1,0.3
		c11.9,13.1,28.2,5,34.3-2.3c0.6-0.6,1.5-1.8,1.8,0.3c0.5,3.1,0.6,6.3,0.2,9.3c0,0,7.9-6.2,13.6-19l-1.6,1
		C278.7,280.6,275,285.4,270.6,289.4z"/>
	<path class="st4" d="M364,322.7c0,3.7-0.6,8.8-1.1,14.1l-1.1,15.8l-4.6,70.4c18.7-6.2,18.7-24.5,15.6-36.9
		c-4.9-19.6-7.5-63-7.6-63.9l0,0L364,322.7z"/>
	<path class="st5" d="M265.7,275c-1.1-1.6-2.6-3-4.3-4.1c-2.1-1.2-4.9-1.7-6.8-0.8c-4.7,2.4-4.7,11.3-4.7,11.3
		c-1.4-2.6-3.1-5.1-5-7.4c-2.3-2.2-5.8-1.5-7.6,1.3c-0.7,1.2-1.3,2.5-1.8,3.8c0,0.1,0,0.2,0,0.3C235.5,279.5,251.3,291.7,265.7,275z
		"/>
	<path class="st6" d="M235.5,279.2c0.5-1.3,1.1-2.6,1.8-3.8c1.7-2.7,5.2-3.5,7.6-1.3c1.9,2.3,3.5,4.7,5,7.4c0,0,0-8.9,4.7-11.3
		c1.8-0.9,4.5-0.4,6.8,0.8c1.7,1.1,3.2,2.4,4.3,4.1c1.3,1.8,2.4,3.9,3.1,6.1l0,0c1,2.7,1.5,5.6,1.8,8.4c4.3-4,8-8.8,10.9-14
		c-2.8,1.8-5.3,3.2-6.9,4.1c0,0,0,0.1,0,0.2l-2.2,1.3c0-0.1,0-0.1,0-0.2l-0.2,0.1c-1-5.4-7.8-10.6-18.1-16.6l-3.7,0.7
		c0,0-33.5,8-37.7-6.9c-1.6-5.4-1.6-11.1,0-16.6l-4.1-2.4c-2.6,8.7-2.2,18,1.3,26.4c1.5,3.3,3.3,6.4,5.6,9.3
		c4.6,5.9,10.3,10.7,16.8,14.5l0.2,0.1c0,0,0.4-1.4,1-3.4l0.1-0.3C233.8,283.9,234.6,281.3,235.5,279.2z"/>
	<path class="st3" d="M126.9,330.6h0.7c-4.4,0-7.5,0.2-8.2,0.3h-0.2h0.1c2.5,1.8,5.2,3.4,7.8,5l0,0
		C127,332.7,126.9,330.6,126.9,330.6z"/>
	<path class="st4" d="M139.5,330.7c-3.9-0.2-7.9-0.2-11.8,0h-0.7c0,0,0.1,2,0.2,5.4c0.4,11.5,0.6,39-3.8,54.2
		c-4.2,14-4.6,36,23,39.7L139.5,330.7z"/>
	<path class="st3" d="M320.7,310.7c0,1.7,0.1,3.3,0.2,5h5.8c0.1-1.8,0.3-3.5,0.7-5.4c-0.2,0.6-0.4,1.3-0.6,1.9h-0.1
		c0.4-2.3,1-4.6,1.7-7c0.4-1.1,0.8-2.2,1.3-3.3c0.3-0.5,0.5-1.1,0.7-1.7l0.4-0.8l0.5-0.8c1.1-2.1,2.4-4.1,3.8-6.1
		c0.5-0.6,1-1.3,1.5-1.9c-4.6,5.4-8.5,10.9-11.9,13.4c-4.7,3.6-2.9-14.9-2.9-14.9c-0.5,3.5-0.8,7.1-0.9,10.7
		C320.7,303.7,320.6,307.3,320.7,310.7z"/>
	<path class="st3" d="M343.4,310.1c0,0-1.8,2.6-4.3,5.6h1.3C341.6,314,342.6,312.1,343.4,310.1z"/>
	<path class="st3" d="M172.8,314c0.2-3.6,0.4-7.2,0.6-10.7c-0.5,4.2-1.4,8.4-2.6,12.4h1.9C172.8,315.1,172.8,314.6,172.8,314z"/>
	<path class="st3" d="M160.6,312.3c1,1.1,2,2.2,2.9,3.4h0.8c-3.5-4.1-7.8-7.5-12.6-9.9c1.4,0.8,2.7,1.6,4,2.5
		C157.4,309.6,159.1,311,160.6,312.3z"/>
	<path class="st3" d="M133,289.9c0-0.2,0.1-0.4,0.2-0.5C133.1,289.5,133,289.7,133,289.9z"/>
	<path class="st3" d="M133.2,292.5c0.3,1,0.8,1.8,1.5,2.5c1.4,1.5,3,2.7,4.7,3.8l0.2,0.1c-2.9-2.3-6.1-5.6-6.7-9.5
		c-0.1,0.5-0.2,1-0.2,1.5C132.9,291.4,133,292,133.2,292.5z"/>
	<path class="st3" d="M143.4,301.6l-0.8-0.4L143.4,301.6z"/>
	<path class="st3" d="M352,274.7c0.8-0.8,1.4-1.8,1.8-2.8c0.5-1,0.8-2.1,0.8-3.2s-0.2-2.3-0.7-3.3c1,3.8-1.3,8.3-4,11.7l0.9-0.9
		C351.3,275.6,351.6,275.2,352,274.7z"/>
	<path class="st3" d="M354,265.3c0.3,0.5,0.6,1,0.8,1.5C354.6,266.3,354.3,265.8,354,265.3z"/>
	<path class="st3" d="M166.9,268.9c0.9,1.9,1.7,3.8,2.4,5.8l0.6,1.5l0.5,1.5c0.4,1,0.6,1.9,1,2.9l0.9,2.9c0.2,1,0.5,2,0.8,3
		c-0.1-1.1-0.2-2-0.4-3.1c-0.1-1-0.3-2-0.6-3c-0.4-2-1-4-1.7-6.1c-0.8-1.9-1.7-3.8-2.7-5.8c-0.2-0.5-0.5-0.9-0.8-1.3
		c-0.3-0.4-0.5-0.8-0.9-1.3c-0.6-0.8-1.3-1.6-2-2.3c0.7,0.7,1.2,1.6,1.5,2.6C166,267,166.4,268,166.9,268.9z"/>
	<path class="st3" d="M182.7,314.8c0.5-2.1,0.8-4.2,1-6.5c0.1-1.1,0.1-2.1,0.1-3.2s-0.1-2.1-0.2-3.2c-0.1,1.1-0.2,2.1-0.1,3.2
		l-0.2,1.7c-0.1,0.6-0.1,1.1-0.2,1.7c-0.2,1.1-0.3,2-0.6,3.1c-0.1,0.5-0.2,1-0.3,1.5l-0.4,1.5c-0.1,0.4-0.2,0.7-0.3,1.1h0.9
		L182.7,314.8z"/>
	<path class="st3" d="M320.9,315.7c-0.1-1.6-0.2-3.3-0.2-5c-0.1-3.5,0-7.1,0.1-10.7c0.1-3.5,0.4-7.2,0.9-10.7
		c-0.8,3.4-1.4,7-1.5,10.6c-0.3,3.5-0.4,7.2-0.3,10.7c0,1.7,0.1,3.3,0.2,5L320.9,315.7z"/>
	<path class="st3" d="M322.9,277.2c0.4-1.5,0.8-3.1,1.3-4.5c0.2-0.8,0.5-1.5,0.8-2.2c0.4-0.7,0.6-1.5,1-2.1c0.7-1.5,1.5-2.7,2.3-4.2
		c-1.1,1.2-2.1,2.5-2.8,4c-0.4,0.7-0.8,1.4-1.2,2.1c-0.3,0.7-0.6,1.5-0.9,2.2s-0.5,1.5-0.7,2.3l-0.3,1.2c-0.1,0.4-0.1,0.8-0.2,1.2
		c-0.3,1.6-0.4,3.2-0.2,4.9C322.2,280.3,322.5,278.8,322.9,277.2z"/>
	<path class="st3" d="M268.9,281c-0.4,0.7-0.9,1.3-1.4,1.9c-0.6,0.6-1.2,1.1-1.8,1.6c-1.3,1-2.7,1.8-4.2,2.5s-3,1.3-4.5,1.7
		c-1.5,0.5-3.1,0.9-4.7,1.2c-1.6,0.3-3.3,0.5-5,0.5s-3.2-0.2-4.9-0.5c-3.1-0.6-6-1.9-8.4-3.9l-0.4-0.3c1.1,1.2,2.5,2.3,4,3
		c1.5,0.8,3.1,1.4,4.7,1.7c3.3,0.7,6.8,0.8,10.1,0.2c3.3-0.5,6.6-1.6,9.5-3.2c1.5-0.7,2.9-1.6,4.2-2.7
		C267.2,283.9,268.2,282.6,268.9,281L268.9,281L268.9,281z"/>
	<path class="st3" d="M331.2,298.8l-0.5,0.8l-0.4,0.8c-0.1,0.6-0.4,1.1-0.7,1.7c-0.5,1.1-0.9,2.2-1.3,3.3c-0.7,2.3-1.3,4.5-1.7,7
		h0.1c0.2-0.6,0.4-1.3,0.6-1.9c0.5-1.6,1.1-3.1,1.7-4.6l1.5-3.2c0.2-0.5,0.5-1,0.8-1.5l0.4-0.8l0.5-0.8c2.2-4.1,5-8,8-11.5
		c1.5-1.7,3.2-3.4,4.9-5.1c1.6-1.7,3.6-3.1,5.4-4.7c0.8-0.9,1.7-1.7,2.4-2.6c0.8-0.9,1.4-1.9,1.9-3c0.5-1.1,0.7-2.4,0.6-3.6
		c-0.1-0.6-0.3-1.2-0.6-1.8c-0.2-0.5-0.5-1-0.8-1.5c0.5,1,0.7,2.2,0.7,3.3c0,1.1-0.2,2.2-0.8,3.2c-0.5,1-1.1,2-1.8,2.8
		c-0.4,0.5-0.8,0.9-1.2,1.3l-0.9,0.9l-0.3,0.3c-0.8,0.9-1.7,1.7-2.4,2.5l-2.5,2.5l-5,5c-1.1,1.1-2.1,2.2-3.1,3.4
		c-0.5,0.6-1,1.3-1.5,1.9C333.6,294.6,332.3,296.7,331.2,298.8z"/>
	<path class="st3" d="M163.6,315.7c-0.9-1.2-1.9-2.3-2.9-3.4c-1.5-1.4-3.2-2.7-4.9-3.9c-1.3-0.9-2.6-1.8-4-2.5l-1.3-0.8
		c-1.8-1-3.7-1.8-5.5-2.9c-1-0.6-1.8-1.1-2.7-1.7c-0.8-0.5-1.7-1-2.4-1.5l-0.2-0.1c-1.7-1-3.3-2.3-4.7-3.8c-0.7-0.7-1.3-1.6-1.5-2.5
		c-0.2-0.5-0.3-1-0.3-1.5c0-0.5,0.1-1,0.2-1.5c-0.1,0.2-0.1,0.4-0.2,0.5c-0.3,0.9-0.3,1.8,0.1,2.6c0.1,0.5,0.3,1.1,0.6,1.5
		c0.3,0.5,0.5,0.9,0.9,1.3c0.7,0.8,1.5,1.5,2.3,2.1c0.9,0.7,1.7,1.2,2.6,1.7c0.9,0.6,2,1.1,3.1,1.6l0.8,0.4c0.5,0.3,1,0.5,1.5,0.8
		c1.8,0.9,3.6,2,5.4,3.1c1.7,1.2,3.3,2.3,5,3.6c1.7,1.2,3.2,2.4,4.7,3.9c0.9,0.8,1.8,1.8,2.6,2.7L163.6,315.7z"/>
	<path class="st3" d="M172.8,315.7h0.9l0.1-1.5c0.2-3.6,0.4-7.3,0.5-10.9c0.1-3.7,0.3-7.4,0.3-11c-0.5,3.6-0.7,7.4-1.1,10.8v0.3
		c-0.2,3.5-0.4,7.1-0.6,10.7C172.8,314.6,172.8,315.1,172.8,315.7z"/>
	<path class="st3" d="M250.4,287c0.1,0.5,0.2,0.9,0.4,1.3c0.2,0.4,0.4,0.8,0.7,1.1c0.1-0.4,0.1-0.9,0-1.3c-0.1-0.4-0.1-0.8-0.2-1.2
		c-0.1-0.8-0.3-1.6-0.6-2.3c-0.3,0.3-0.4,0.8-0.3,1.2C250.3,286.1,250.3,286.6,250.4,287z"/>
	<path class="st3" d="M242.7,289.1c0.1-0.4,0.2-0.9,0.3-1.3s0.1-0.8,0.1-1.2c0-0.8,0-1.6-0.1-2.4c-0.3,0.3-0.6,0.7-0.7,1.2
		c-0.1,0.4-0.2,0.9-0.2,1.3s0,0.9,0.1,1.3C242.3,288.4,242.5,288.8,242.7,289.1z"/>
	<path class="st3" d="M235.1,284.2c-0.1,0.4-0.1,0.9-0.1,1.3c0,0.5,0.1,0.9,0.3,1.3c0.2-0.4,0.4-0.8,0.5-1.2l0.3-1.2
		c0.2-0.8,0.3-1.6,0.4-2.4c-0.3,0.3-0.6,0.7-0.9,1.1C235.3,283.4,235.2,283.8,235.1,284.2z"/>
	<path class="st3" d="M257.6,286.5c0.2,0.4,0.3,0.8,0.6,1.2c0.2-0.4,0.2-0.9,0.2-1.3c0-0.4-0.1-0.9-0.2-1.3
		c-0.1-0.4-0.3-0.8-0.5-1.2c-0.2-0.4-0.5-0.7-0.9-1c0.1,0.8,0.3,1.5,0.4,2.3C257.4,285.8,257.6,286.1,257.6,286.5z"/>
	<path class="st3" d="M265.2,282.5c0.1,0.4,0.2,0.8,0.4,1.2c0.2-0.4,0.4-0.9,0.4-1.3c0.1-0.4,0.1-0.9,0-1.3
		c-0.1-0.5-0.2-0.9-0.4-1.3c-0.1-0.4-0.3-0.8-0.7-1.1c0,0.9,0.1,1.5,0.1,2.5C265,281.5,265.1,282.1,265.2,282.5z"/>
	<path class="st6" d="M363.5,318.5c0.2,0.4,0.4,0.8,0.5,1.2c-0.1-2.2-1.9-4-4.1-4h-217c-2.2,0-4.1,1.8-4.1,4c0,0.1,0,0.2,0,0.4v0.2
		c0.1-2.2,1.9-3.9,4.1-3.8h217c0.1,0,0.3,0,0.4,0l0.1-0.1C361.8,316.1,363.1,317.1,363.5,318.5z"/>
	<path class="st0" d="M351.8,441.2c2.1,0,3.9-1.7,4.1-3.8v-0.5c-1.5,5.4-5.5,3.9-10,3.9H202.2c86.7-6.8,155.4-120,158-124.3
		c-0.1,0-0.3,0-0.4,0h-217c-2.2,0-4,1.6-4.1,3.8c0,0.2,0,0.3,0,0.5l0.7,9.8l6.9,99.2l0.5,7.6c0.2,2.1,1.9,3.8,4.1,3.8h200.8V441.2z
		 M262.6,395.1v-20.7h2.9v20.7H262.6z M266.6,395.1v-16.5h2.8v16.5H266.6z M273.4,395.1h-2.8v-13.8h2.8V395.1z M270.4,375.4
		c0-0.7,0.5-1.2,1.2-1.2s1.2,0.5,1.2,1.2s-0.5,1.2-1.2,1.2l0,0C270.9,376.6,270.4,376,270.4,375.4z M234.2,379.3
		c0,0.7-0.5,1.2-1.2,1.2c-0.7,0-1.2-0.5-1.2-1.2s0.5-1.2,1.2-1.2l0,0C233.6,378,234.1,378.6,234.2,379.3L234.2,379.3z M234.4,395.2
		h-2.8v-8.7h2.8V395.2z M238.3,395.2h-2.8V384h2.8V395.2z M242.2,395.2h-2.8v-16.6h2.8V395.2z M246.1,395.2h-2.8V370h2.8V395.2z
		 M244.7,363.4c-1.1,0-2-0.9-2-2s0.9-2,2-2s2,0.9,2,2S245.8,363.4,244.7,363.4L244.7,363.4z M250,395.2h-2.8v-10.5h2.8V395.2z
		 M253.8,395.2H251v-22.3h2.8V395.2z M257.8,395.2H255V380h2.8V395.2z M261.6,395.2h-2.8v-18.4h2.8V395.2z"/>
	<path class="st0" d="M361.9,352.5l1.1-15.8c-0.1,1.5-0.3,2.9-0.4,4.4L361.9,352.5z"/>
	<path class="st0" d="M364,321.5v-0.6c0-0.4,0-0.8-0.1-1.1c-0.1-0.4-0.2-0.8-0.5-1.2C363.7,319.4,363.9,320.5,364,321.5z"/>
	<path class="st7" d="M362.6,341.3c0.1-1.5,0.2-3,0.4-4.4c0.5-5.4,1.2-10.4,1.1-14.1c0-0.4,0-0.8,0-1.2c0-1-0.2-2-0.5-2.9
		c-0.4-1.4-1.7-2.3-3.1-2.2l-0.1,0.1c-2.5,4.3-71.2,117.5-158,124.4H346c4.5,0,8.5,1.4,10-3.9c0.4-1.6,0.6-3.2,0.6-4.9l0.6-9.1
		l4.6-70.4L362.6,341.3z"/>
	<rect x="231.5" y="386.4" class="st0" width="2.8" height="8.7"/>
	
		<linearGradient id="SVGID_1_" gradientUnits="userSpaceOnUse" x1="232.9313" y1="1010.3865" x2="232.9313" y2="1028.5311" gradientTransform="matrix(1 0 0 1 0 -634)">
		<stop  offset="0" style="stop-color:#7F82BC"/>
		<stop  offset="0.52" style="stop-color:#6769A3"/>
		<stop  offset="1" style="stop-color:#555690"/>
	</linearGradient>
	<rect x="231.5" y="386.4" class="st8" width="2.8" height="8.7"/>
	<rect x="235.5" y="383.9" class="st0" width="2.8" height="11.2"/>
	
		<linearGradient id="SVGID_2_" gradientUnits="userSpaceOnUse" x1="236.8723" y1="1008.7177" x2="236.8723" y2="1028.4777" gradientTransform="matrix(1 0 0 1 0 -634)">
		<stop  offset="0" style="stop-color:#7F82BC"/>
		<stop  offset="0.52" style="stop-color:#6769A3"/>
		<stop  offset="1" style="stop-color:#555690"/>
	</linearGradient>
	<rect x="235.5" y="383.9" class="st9" width="2.8" height="11.2"/>
	<rect x="239.3" y="378.7" class="st0" width="2.8" height="16.5"/>
	
		<linearGradient id="SVGID_3_" gradientUnits="userSpaceOnUse" x1="240.7123" y1="1006.5414" x2="240.7123" y2="1028.4109" gradientTransform="matrix(1 0 0 1 0 -634)">
		<stop  offset="0" style="stop-color:#7F82BC"/>
		<stop  offset="0.52" style="stop-color:#6769A3"/>
		<stop  offset="1" style="stop-color:#555690"/>
	</linearGradient>
	<rect x="239.3" y="378.7" class="st10" width="2.8" height="16.5"/>
	<rect x="243.2" y="370" class="st0" width="2.8" height="25.2"/>
	
		<linearGradient id="SVGID_4_" gradientUnits="userSpaceOnUse" x1="244.6533" y1="1004.592" x2="244.6533" y2="1028.3441" gradientTransform="matrix(1 0 0 1 0 -634)">
		<stop  offset="0" style="stop-color:#7F82BC"/>
		<stop  offset="0.52" style="stop-color:#6769A3"/>
		<stop  offset="1" style="stop-color:#555690"/>
	</linearGradient>
	<rect x="243.2" y="370" class="st11" width="2.8" height="25.2"/>
	<rect x="247.1" y="384.6" class="st0" width="2.8" height="10.5"/>
	
		<linearGradient id="SVGID_5_" gradientUnits="userSpaceOnUse" x1="248.4933" y1="1009.1315" x2="248.4933" y2="1028.4911" gradientTransform="matrix(1 0 0 1 0 -634)">
		<stop  offset="0" style="stop-color:#7F82BC"/>
		<stop  offset="0.52" style="stop-color:#6769A3"/>
		<stop  offset="1" style="stop-color:#555690"/>
	</linearGradient>
	<rect x="247.1" y="384.6" class="st12" width="2.8" height="10.5"/>
	<rect x="251" y="372.8" class="st0" width="2.8" height="22.3"/>
	
		<linearGradient id="SVGID_6_" gradientUnits="userSpaceOnUse" x1="252.4342" y1="1005.0994" x2="252.4342" y2="1028.3575" gradientTransform="matrix(1 0 0 1 0 -634)">
		<stop  offset="0" style="stop-color:#7F82BC"/>
		<stop  offset="0.52" style="stop-color:#6769A3"/>
		<stop  offset="1" style="stop-color:#555690"/>
	</linearGradient>
	<rect x="251" y="372.8" class="st13" width="2.8" height="22.3"/>
	<rect x="254.9" y="379.9" class="st0" width="2.8" height="15.3"/>
	
		<linearGradient id="SVGID_7_" gradientUnits="userSpaceOnUse" x1="256.2742" y1="1006.9553" x2="256.2742" y2="1028.4243" gradientTransform="matrix(1 0 0 1 0 -634)">
		<stop  offset="0" style="stop-color:#7F82BC"/>
		<stop  offset="0.52" style="stop-color:#6769A3"/>
		<stop  offset="1" style="stop-color:#555690"/>
	</linearGradient>
	<rect x="254.9" y="379.9" class="st14" width="2.8" height="15.3"/>
	<rect x="258.8" y="376.8" class="st0" width="2.8" height="18.3"/>
	
		<linearGradient id="SVGID_8_" gradientUnits="userSpaceOnUse" x1="260.2152" y1="1006.0073" x2="260.2152" y2="1028.3843" gradientTransform="matrix(1 0 0 1 0 -634)">
		<stop  offset="0" style="stop-color:#7F82BC"/>
		<stop  offset="0.52" style="stop-color:#6769A3"/>
		<stop  offset="1" style="stop-color:#555690"/>
	</linearGradient>
	<rect x="258.8" y="376.8" class="st15" width="2.8" height="18.3"/>
	<rect x="262.6" y="374.5" class="st0" width="2.8" height="20.7"/>
	
		<linearGradient id="SVGID_9_" gradientUnits="userSpaceOnUse" x1="264.0552" y1="1005.4332" x2="264.0552" y2="1028.3708" gradientTransform="matrix(1 0 0 1 0 -634)">
		<stop  offset="0" style="stop-color:#7F82BC"/>
		<stop  offset="0.52" style="stop-color:#6769A3"/>
		<stop  offset="1" style="stop-color:#555690"/>
	</linearGradient>
	<rect x="262.6" y="374.5" class="st16" width="2.8" height="20.7"/>
	<rect x="266.6" y="378.7" class="st0" width="2.8" height="16.5"/>
	
		<linearGradient id="SVGID_10_" gradientUnits="userSpaceOnUse" x1="267.9962" y1="1006.5414" x2="267.9962" y2="1028.4109" gradientTransform="matrix(1 0 0 1 0 -634)">
		<stop  offset="0" style="stop-color:#7F82BC"/>
		<stop  offset="0.52" style="stop-color:#6769A3"/>
		<stop  offset="1" style="stop-color:#555690"/>
	</linearGradient>
	<rect x="266.6" y="378.7" class="st17" width="2.8" height="16.5"/>
	<rect x="270.4" y="381.3" class="st0" width="2.8" height="13.8"/>
	
		<linearGradient id="SVGID_11_" gradientUnits="userSpaceOnUse" x1="271.8362" y1="1007.5027" x2="271.8362" y2="1028.4376" gradientTransform="matrix(1 0 0 1 0 -634)">
		<stop  offset="0" style="stop-color:#7F82BC"/>
		<stop  offset="0.52" style="stop-color:#6769A3"/>
		<stop  offset="1" style="stop-color:#555690"/>
	</linearGradient>
	<rect x="270.4" y="381.3" class="st18" width="2.8" height="13.8"/>
	<circle class="st0" cx="233" cy="379.3" r="1.2"/>
	
		<linearGradient id="SVGID_12_" gradientUnits="userSpaceOnUse" x1="233.0324" y1="1012.0021" x2="233.0324" y2="1014.4587" gradientTransform="matrix(1 0 0 1 0 -634)">
		<stop  offset="0" style="stop-color:#7F82BC"/>
		<stop  offset="0.52" style="stop-color:#6769A3"/>
		<stop  offset="1" style="stop-color:#555690"/>
	</linearGradient>
	<circle class="st19" cx="233" cy="379.3" r="1.2"/>
	<circle class="st0" cx="271.6" cy="375.3" r="1.2"/>
	
		<linearGradient id="SVGID_13_" gradientUnits="userSpaceOnUse" x1="271.634" y1="1008.0901" x2="271.634" y2="1010.5468" gradientTransform="matrix(1 0 0 1 0 -634)">
		<stop  offset="0" style="stop-color:#7F82BC"/>
		<stop  offset="0.52" style="stop-color:#6769A3"/>
		<stop  offset="1" style="stop-color:#555690"/>
	</linearGradient>
	<circle class="st20" cx="271.6" cy="375.3" r="1.2"/>
	<path class="st0" d="M244.7,359.2c-1.1,0-2,0.9-2,2s0.9,2,2,2s2-0.9,2-2C246.8,360.1,245.8,359.2,244.7,359.2L244.7,359.2z
		 M244.7,362.3c-0.6,0-1.1-0.5-1.1-1.1c0-0.6,0.5-1.1,1.1-1.1c0.6,0,1.1,0.5,1.1,1.1C245.8,361.9,245.3,362.3,244.7,362.3
		L244.7,362.3z"/>
	
		<linearGradient id="SVGID_14_" gradientUnits="userSpaceOnUse" x1="276.3768" y1="1008.1633" x2="276.3768" y2="1012.3155" gradientTransform="matrix(1 0 0 1 -31.72 -649)">
		<stop  offset="0" style="stop-color:#7F82BC"/>
		<stop  offset="0.52" style="stop-color:#6769A3"/>
		<stop  offset="1" style="stop-color:#555690"/>
	</linearGradient>
	<path class="st21" d="M244.7,359.2c-1.1,0-2,0.9-2,2s0.9,2,2,2s2-0.9,2-2C246.8,360.1,245.8,359.2,244.7,359.2L244.7,359.2z
		 M244.7,362.3c-0.6,0-1.1-0.5-1.1-1.1c0-0.6,0.5-1.1,1.1-1.1c0.6,0,1.1,0.5,1.1,1.1C245.8,361.9,245.3,362.3,244.7,362.3
		L244.7,362.3z"/>
	<circle class="st22" cx="244.7" cy="361.3" r="1.1"/>
	<path class="st23" d="M303,160.8c0.7-1.4,2.2-2.3,3.8-2.3c0.7,0,1.5,0.2,2.1,0.6c0.2-0.6,0.3-1.2,0.3-1.8h-5.6v-9.2l4.9-2.5v1.6
		l-3.3,1.6v6.9h6c0.2,1.7-0.1,3.3-0.8,4.9c0.4,0.6,0.6,1.4,0.6,2.2c0,2.2-1.9,4-4.1,4l0,0c-1.5,0-2.9-0.8-3.6-2.1
		c0.1,2.6,0.2,5,0.2,7.1c1.8-0.4,3.5-1.1,5.2-2c10-5.3,9-18.7,5.2-27.4c-2.7-6.2-7.8-4.9-10.6-3.5
		C302.8,144.8,302.9,153.2,303,160.8z"/>
	<path class="st23" d="M306.8,164.7c1.2,0.1,2.3-0.9,2.3-2.1c0,0,0,0,0-0.1C309.1,163.8,308.1,164.8,306.8,164.7L306.8,164.7z"/>
	<path class="st23" d="M189.3,164.7c1.2,0.1,2.3-0.9,2.3-2.1c0,0,0,0,0-0.1C191.6,163.8,190.5,164.8,189.3,164.7L189.3,164.7z"/>
	<path class="st23" d="M189.3,166.6c-2.2,0.1-4.1-1.6-4.2-3.7c0-0.6,0.1-1.2,0.3-1.8c-0.1-0.1-0.3-0.2-0.4-0.4
		c-1.5-1.6-1.1-5.3-1.1-5.3h6v-6.9l-3.3-1.5v-1.6l4.9,2.5v9.2h-5.5c0,0.8,0.2,1.6,0.5,2.4c0.8-0.7,1.8-1.1,2.9-1.1
		c1.6,0,3.1,0.9,3.8,2.3l0.6-18.9c-1.2-1.8-6.6-8.5-11.1,0.6c-3.8,7.7-4.3,20.2,3.3,25.2c5.1,3.2,6.5,1.9,7,0.5l0.1-3.7
		C192.2,165.7,190.8,166.6,189.3,166.6z"/>
	<path class="st24" d="M212.6,258.4c4.1,14.8,37.7,6.9,37.7,6.9l3.7-0.7c-5.1-2.9-10.9-6.1-17.4-9.5c-7.4-3.9-15.6-8.3-24.1-13.1
		C211.1,247.2,211.1,252.9,212.6,258.4z"/>
	<path class="st25" d="M192.3,175.6c-2,9.7-5.1,30,3.6,41.4c7,9.1,27.5,10.7,45,16.1c-12.7-5.4-16.8-24.5-16.8-24.5
		s21.3,22.9,49.2-1.9c-8.1-1.6-17.5-5.1-25.1-4c-13.7,1.8-26.4,3.2-37.5,1.7c-19.5-2.9-18.4-21.2-18.4-21.2l0.3-8.3
		c-6.7,11.5-17.4,35.9-0.1,53.4C175.7,211.1,185.6,187.5,192.3,175.6z"/>
	<path class="st25" d="M299.1,200.7c-1-1.5-1.7-3.1-2.2-4.9c-2.8,4.1-6.6,7.6-10.9,10.1c-3.2,1.8-7.7,1.6-12.5,0.6
		c-0.4,2.3-5.6,26.2-24.2,27.7c-1.9,0.2-3.8,0-5.7-0.4c10.8,3.6,20.2,9,23.8,19c3.8,10.2,6.5,19.1,7.1,26.7c1.6-0.9,4-2.4,6.9-4.1
		l1.6-1c13.7-8.9,36-25.5,40-41.2c1.5-5.2,0.4-10.6-2.8-14.9c-8.5-11.2-14.1-24.4-16.6-38.2c-0.7,3.3-1.8,6.7-3.3,9.8
		C301.1,197.6,301.1,203.7,299.1,200.7z M307.7,204.8c0,0,8.8,12.9,12,20c3.2,7.1-9.8,26.5-14.5,29.1c-4.6,2.6-1.7-10.2,1.8-19.2
		S296.9,191.5,307.7,204.8z"/>
	<path class="st25" d="M194.5,230.1c-0.3-0.3-0.6-0.5-0.9-0.8L194.5,230.1z"/>
	<path class="st25" d="M197,232.1l-0.5-0.4L197,232.1z"/>
	<path class="st25" d="M194,129.7c0,0.5,0,1,0,1.5v0.4v-1.2C194,130.4,194,130.2,194,129.7z"/>
	<path class="st25" d="M272.1,281l0.2-0.1c-1.7-8-16.2-15.6-35.7-25.9c6.5,3.4,12.3,6.6,17.4,9.5C264.4,270.4,271.1,275.6,272.1,281
		z"/>
	<path class="st26" d="M212.6,241.8c8.5,5,16.7,9.2,24.1,13.1c19.5,10.3,34,17.9,35.7,25.9c0,0.1,0,0.1,0,0.2l2.2-1.3
		c0,0,0-0.1,0-0.2c-0.6-7.7-3.3-16.6-7.1-26.7c-3.7-10-13-15.4-23.8-19c-0.9-0.2-1.8-0.5-2.6-0.9c-17.6-5.4-38-6.9-45-16.1
		c-8.7-11.3-5.7-31.7-3.6-41.4c-6.7,11.7-16.6,35.5,0.3,52.5c0.4,0.4,0.7,0.7,1.1,1.1c0.4,0.4,0.6,0.5,0.9,0.8
		c0.6,0.5,1.2,1.1,1.9,1.6l0.5,0.4c1,0.7,2,1.4,3,2.1l2.6,1.7c1.9,1.2,3.7,2.3,5.7,3.4L212.6,241.8z"/>
	<path class="st27" d="M300.3,189.9c-1,2.1-2.1,4.1-3.4,6c0.5,1.7,1.2,3.3,2.2,4.9C301.1,203.7,301.1,197.6,300.3,189.9z"/>
	<path class="st27" d="M307.1,234.8c-3.5,9-6.7,21.7-1.8,19.2c4.9-2.5,17.7-22.1,14.5-29.1c-3.2-7-12-20-12-20
		C296.9,191.5,310.6,225.7,307.1,234.8z"/>
	<path class="st28" d="M210.8,204.2c11,1.6,23.6,0.2,37.5-1.7c7.6-1,17,2.4,25.1,4l0.2-0.2v0.2c4.9,0.9,9.3,1.2,12.5-0.6
		c4.3-2.5,8.1-6,10.9-10.1c1.3-1.9,2.4-3.9,3.4-6c1.5-3.1,2.6-6.4,3.3-9.8l0.1-0.4c0,0-0.2-3.3-0.3-8.2c-0.1-2.1-0.2-4.5-0.2-7.1
		c-0.6-1.1-0.7-2.4-0.1-3.6c-0.2-7.6-0.2-16.1,0.1-22.1c0.1-2.1,0.3-4.2,0.6-6.4c4.9-27.1-7.7-39.7-7.7-39.7s-13.1-19.9-45.9-18.9
		c-14,0.3-39.2,3.8-49.9,24.1c-7.3,13.7-6.5,28.7-6.2,32c0,0.4,0.1,0.7,0.1,0.7v1.2l-0.3,10.3l-0.6,18.9c0.3,0.5,0.4,1.1,0.4,1.7
		c0,0.6-0.2,1.3-0.5,1.8l-0.5,3.6l-0.2,6.8l-0.3,8.3C192.4,183.1,191.3,201.3,210.8,204.2z M236.9,123.7c0,0-15-2.6-19.9-2.7
		c-4.4,0-17.6,2.6-17.6,2.6l-1.5-6.1l35.1-14.1l4,9.5l4-6.7L236.9,123.7z M264.6,196.4c-2.8,3.3-6.8,5.4-11,5.8l-0.3-2.6
		c3.6-0.3,7-2,9.3-4.9c3.5-4.5,3.7-10.8,3.6-13.3h-19.8v-42.2l14.9-10.9l1.5,2L249,140.4V179h19.6l0.1,1.1
		C268.7,180.6,269.6,190,264.6,196.4L264.6,196.4z M257,124.1V107l5.9,14.8l1.5-14.8l35,12.6l-4.3,9.8
		C295.1,129.5,274.8,116.9,257,124.1z"/>
	<path class="st29" d="M232.9,103.4l-35.1,14.1l1.5,6.1c0,0,13.2-2.6,17.6-2.6c5,0.1,19.9,2.7,19.9,2.7l4-17.5l-4,6.7L232.9,103.4z"
		/>
	<path class="st29" d="M299.4,119.7l-35-12.6l-1.5,14.8l-5.9-14.8v17.1c17.8-7.2,38.1,5.4,38.1,5.4L299.4,119.7z"/>
	<path class="st30" d="M268.6,179H249v-38.5l13.7-10.2l-1.5-2l-14.8,10.8v42.3h19.8c0.1,2.5-0.1,8.8-3.6,13.3
		c-2.3,2.8-5.8,4.5-9.3,4.9l0.3,2.6c4.3-0.4,8.3-2.4,11-5.8c5.1-6.4,4.1-15.8,4.1-16.3L268.6,179z"/>
	<path class="st31" d="M249.3,234.4c18.5-1.5,23.6-25.4,24.2-27.7v-0.2c0,0-13.3,15.5-26.4,16.6c-13,1.1-22.9-14.5-22.9-14.5
		s4,19.2,16.8,24.5c0.9,0.4,1.7,0.6,2.6,0.9C245.5,234.4,247.4,234.6,249.3,234.4z"/>
	<path class="st32" d="M247.1,222.9c13.1-1.1,26.4-16.6,26.4-16.6l-0.2,0.2c-27.8,25-49.2,1.9-49.2,1.9S233.9,224,247.1,222.9z"/>
	<path class="st30" d="M310.4,160.4c0.7-1.5,1-3.2,0.8-4.9h-6v-6.9l3.3-1.5v-1.6l-4.9,2.5v9.2h5.6c0,0.6-0.1,1.2-0.3,1.8
		C309.5,159.4,310,159.8,310.4,160.4z"/>
	<path class="st30" d="M186.3,159.6c-0.3-0.7-0.5-1.5-0.5-2.4h5.6V148l-4.9-2.5v1.6l3.3,1.6v6.9h-6c0,0-0.4,3.7,1.1,5.3
		c0.1,0.1,0.3,0.2,0.4,0.4C185.5,160.5,185.9,160,186.3,159.6z"/>
	<path class="st29" d="M189.3,158.5c-1.1,0-2.1,0.4-2.9,1.1c-0.4,0.4-0.8,0.9-1,1.5c-0.8,2,0.1,4.3,2.1,5.3c0.6,0.2,1.2,0.3,1.8,0.3
		c1.5,0,3-0.8,3.7-2.2c0.3-0.6,0.5-1.2,0.5-1.8c0-0.6-0.1-1.2-0.4-1.7C192.4,159.4,190.9,158.5,189.3,158.5z M189.3,164.7
		c-1.2-0.1-2.1-1.1-2.1-2.3c0.1-1.2,1.1-2.1,2.3-2.1c1.2,0.1,2.1,1,2.1,2.2C191.6,163.8,190.6,164.8,189.3,164.7L189.3,164.7z"/>
	<ellipse class="st33" cx="189.3" cy="162.5" rx="2.3" ry="2.2"/>
	<path class="st29" d="M306.8,166.6c2.2,0.1,4.1-1.7,4.2-3.9l0,0c0-0.8-0.2-1.5-0.6-2.2c-0.4-0.6-0.8-1-1.4-1.3
		c-0.7-0.4-1.4-0.6-2.1-0.6c-1.6,0-3.1,0.9-3.8,2.3c-0.5,1.1-0.5,2.5,0.1,3.6C303.9,165.7,305.3,166.6,306.8,166.6z M306.8,160.3
		c1.2,0,2.3,0.9,2.3,2.2l0,0c0,1.2-1,2.2-2.3,2.2c0,0,0,0-0.1,0c-1.2,0-2.2-1-2.2-2.2C304.6,161.3,305.6,160.3,306.8,160.3
		L306.8,160.3z"/>
	<ellipse class="st33" cx="306.8" cy="162.5" rx="2.3" ry="2.2"/>
	<path class="st34" d="M278.7,128.8c-11.6,0.1-12,3.3-13.4,9.8c0.7,2.8,2.3,5.5,4.6,7.3c6.8,4.4,19,5.7,24.1-7.3
		C291.3,132.4,285.3,128.6,278.7,128.8z"/>
	<path class="st34" d="M219.5,129c-6.7-0.2-12.7,3.7-15.2,9.8c5.1,13,17.4,11.6,24.1,7.3c2.3-1.9,3.8-4.5,4.6-7.3
		C231.7,132.1,231,129,219.5,129z"/>
</g>
</svg>
