<!-- Generator: Adobe Illustrator 19.0.0, SVG Export Plug-In  -->
<svg version="1.1"
	 xmlns="http://www.w3.org/2000/svg" xmlns:xlink="http://www.w3.org/1999/xlink" xmlns:a="http://ns.adobe.com/AdobeSVGViewerExtensions/3.0/"
	 x="0px" y="0px" width="150.3px" height="150px" viewBox="0 0 150.3 150" style="enable-background:new 0 0 150.3 150;"
	 xml:space="preserve">
<style type="text/css">
	.st0{fill:#D8D8D8;}
	.st1{filter:url(#Adobe_OpacityMaskFilter);}
	.st2{fill:#FFFFFF;}
	.st3{mask:url(#mask-2_1_);}
	.st4{fill:#F16529;}
	.st5{display:none;fill-opacity:0.2;stroke:#979797;}
	.st6{filter:url(#Adobe_OpacityMaskFilter_1_);}
	.st7{mask:url(#mask-2_6_);}
</style>
<defs>
</defs>
<g id="Page-1_2_">
	<g id="Artboard-1_2_">
		<g id="Group_2_">
			<g id="Mask_2_">
				<circle id="path-1_2_" class="st0" cx="75" cy="75" r="75"/>
			</g>
			<defs>
				<filter id="Adobe_OpacityMaskFilter" filterUnits="userSpaceOnUse" x="0" y="0" width="150.3" height="150">
					<feColorMatrix  type="matrix" values="1 0 0 0 0  0 1 0 0 0  0 0 1 0 0  0 0 0 1 0"/>
				</filter>
			</defs>
			<mask maskUnits="userSpaceOnUse" x="0" y="0" width="150.3" height="150" id="mask-2_1_">
				<g id="XMLID_17_" class="st1">
					<circle id="path-1_1_" class="st2" cx="75" cy="75" r="75"/>
				</g>
			</mask>
			<g id="XMLID_15_" class="st3">
				<path id="XMLID_22_" class="st4" d="M92.3,148.8c3.2-1,6.5-1.7,9.7-2.6c0.8-0.2,1.6-0.5,2.4-0.8c0.4-0.1,0.7-0.3,1.1-0.4
					c0,0,0,0,0,0c0-0.1,0.4-0.2,0.4-0.2c0.1,0,0.2-0.1,0.2-0.1c1.5-0.7,3-1.6,4.4-2.6c2.8-2,5.7-4,8.5-5.9c1.5-1,2.9-1.9,4.4-2.8
					c0.7-0.4,1.4-0.8,2-1.2c0.3-0.2,0.6-0.4,0.9-0.6c0,0,0,0,0.1-0.1c-0.2,0.1,0.1-0.2,0.3-0.2c1.1-0.9,2.1-1.8,3-2.8
					c0.5-0.6,1-1.1,1.5-1.7c0.2-0.3,0.4-0.5,0.6-0.8c0,0,0.1-0.1,0.1-0.1c-0.1,0.1-0.1,0,0.2-0.3c1.7-2.3,3.2-4.6,4.8-7
					c0.8-1.2,1.5-2.4,2.3-3.6c0.8-1.3,1.8-2.5,2.7-3.7c0.9-1.3,1.6-2.7,2.3-4.2c0-0.1,0.2-0.3,0.2-0.4c0,0.1-0.1,0.1-0.2,0.3
					c0.1-0.2,0.1-0.4,0.2-0.5c0.2-0.4,0.3-0.9,0.5-1.3c0.3-0.8,0.6-1.6,0.8-2.4c0.5-1.6,1-3.2,1.5-4.8c0.2-0.8,0.5-1.6,0.7-2.4
					c0.1-0.4,0.2-0.9,0.3-1.3c0-0.2,0.1-0.4,0.1-0.5c0.1-0.7,0,0.1,0,0.2c0.3-1.7,0.7-3.4,1.1-5.1c0.1-0.4,0.2-0.8,0.3-1.2
					c0-0.2,0.1-0.3,0.1-0.5c0-0.3,0-0.5,0-0.8c0-0.1,0-0.2,0-0.3c-0.2-0.9-0.1-1.7,0.2-2.4V0H0v150h90.5
					C91,149.5,91.6,149,92.3,148.8z"/>
				<path id="XMLID_18_" class="st5" d="M92.3,148.8c3.2-1,6.5-1.7,9.7-2.6c0.8-0.2,1.6-0.5,2.4-0.8c0.4-0.1,0.7-0.3,1.1-0.4
					c0,0,0,0,0,0c0-0.1,0.4-0.2,0.4-0.2c0.1,0,0.2-0.1,0.2-0.1c1.5-0.7,3-1.6,4.4-2.6c2.8-2,5.7-4,8.5-5.9c1.5-1,2.9-1.9,4.4-2.8
					c0.7-0.4,1.4-0.8,2-1.2c0.3-0.2,0.6-0.4,0.9-0.6c0,0,0,0,0.1-0.1c-0.2,0.1,0.1-0.2,0.3-0.2c1.1-0.9,2.1-1.8,3-2.8
					c0.5-0.6,1-1.1,1.5-1.7c0.2-0.3,0.4-0.5,0.6-0.8c0,0,0.1-0.1,0.1-0.1c-0.1,0.1-0.1,0,0.2-0.3c1.7-2.3,3.2-4.6,4.8-7
					c0.8-1.2,1.5-2.4,2.3-3.6c0.8-1.3,1.8-2.5,2.7-3.7c0.9-1.3,1.6-2.7,2.3-4.2c0-0.1,0.2-0.3,0.2-0.4c0,0.1-0.1,0.1-0.2,0.3
					c0.1-0.2,0.1-0.4,0.2-0.5c0.2-0.4,0.3-0.9,0.5-1.3c0.3-0.8,0.6-1.6,0.8-2.4c0.5-1.6,1-3.2,1.5-4.8c0.2-0.7,0.4-1.4,0.6-2.1
					c0.1-0.2,0.1-0.5,0.2-0.7c0.1-0.3,0.1-0.6,0.2-0.9c0-0.2,0.1-0.4,0.1-0.5c0.1-0.7,0,0.1,0,0.2c0.3-1.7,0.7-3.4,1.1-5.1
					c0.1-0.4,0.2-0.8,0.3-1.2c0-0.2,0.1-0.3,0.1-0.5c0-0.3,0-0.5,0-0.8c0-0.1,0-0.2,0-0.3c-0.1-0.6-0.1-1.2,0-1.7l-42.3-47.1v13.5
					l-22.2-5.9l-31.7,5.9L56,68l9.4-1.5L94.6,68v8.8H45.1l1.8,28.4l45.2,43.8C92.1,148.9,92.2,148.9,92.3,148.8z"/>
				<path id="html5_1_" class="st2" d="M105.8,64.2c-0.3,3.4-0.6,6.5-0.8,9.6c-0.7,7.5-1.3,14.9-2,22.4c-0.2,2.7-0.4,5.4-0.7,8.1
					c0,0.3-0.5,0.8-0.8,0.9c-8.6,2.4-17.2,4.8-25.8,7.1c-0.4,0.1-0.8,0.1-1.2,0c-8.6-2.3-17.1-4.7-25.7-7.1
					c-0.7-0.2-0.8-0.6-0.8-1.1c-0.5-5.8-1-11.6-1.6-17.4c-0.1-0.8-0.1-1.6-0.2-2.4h13.3c0.3,3,0.6,5.9,0.7,8.8
					c0.1,1.3,0.4,1.8,1.8,2.2c4.1,1,8.2,2.2,12.3,3.3c0.5,0.1,1.1,0.1,1.6,0c4.4-1.2,8.8-2.3,13.2-3.6c0.4-0.1,0.8-0.5,0.8-0.8
					c0.5-5.2,1-10.5,1.4-15.7c0-0.2,0-0.4,0-0.8H45.4c-1.2-13.4-2.4-26.7-3.6-40h66.3c-0.4,4.4-0.8,8.7-1.2,13.2H56.3
					c0.4,4.6,0.8,9,1.2,13.5C73.5,64.2,89.6,64.2,105.8,64.2L105.8,64.2z"/>
			</g>
		</g>
	</g>
</g>
</svg>
