<!-- Generator: Adobe Illustrator 19.0.0, SVG Export Plug-In  -->
<svg version="1.1"
	 xmlns="http://www.w3.org/2000/svg" xmlns:xlink="http://www.w3.org/1999/xlink" xmlns:a="http://ns.adobe.com/AdobeSVGViewerExtensions/3.0/"
	 x="0px" y="0px" width="150px" height="150px" viewBox="0 0 150 150" style="enable-background:new 0 0 150 150;"
	 xml:space="preserve">
<style type="text/css">
	.st0{fill:#FFFFFF;}
	.st1{fill:#D8D8D8;}
	.st2{clip-path:url(#XMLID_31_);}
	.st3{filter:url(#Adobe_OpacityMaskFilter);}
	.st4{clip-path:url(#XMLID_32_);fill:#FFFFFF;}
	.st5{clip-path:url(#XMLID_32_);mask:url(#mask-2_1_);}
	.st6{filter:url(#Adobe_OpacityMaskFilter_1_);}
	.st7{mask:url(#mask-4_1_);}
	.st8{fill:#F7DF1E;}
	.st9{clip-path:url(#XMLID_34_);}
	.st10{filter:url(#Adobe_OpacityMaskFilter_2_);}
	.st11{clip-path:url(#XMLID_35_);fill:#FFFFFF;}
	.st12{clip-path:url(#XMLID_35_);mask:url(#mask-2_6_);}
	.st13{filter:url(#Adobe_OpacityMaskFilter_3_);}
	.st14{mask:url(#mask-4_2_);}
</style>
<defs>
</defs>
<g id="Page-1_1_">
	<g id="_x31_024_1_">
		<g id="js-circle_1_">
			<g id="Page-1_2_">
				<g id="Artboard-1_1_">
				</g>
				<g id="Group-_x2B_-Group-2-Mask_1_">
					<g id="mask-2_2_">
						<circle id="path-1_5_" class="st0" cx="75.1" cy="75.1" r="74.9"/>
					</g>
					<g id="Mask_1_">
						<circle id="path-1_4_" class="st1" cx="75.1" cy="75.1" r="74.9"/>
					</g>
					<g id="Group-Clipped_1_">
						<g id="path-1_3_">
						</g>
						<g id="XMLID_25_">
							<defs>
								<polygon id="XMLID_27_" points="0.4,0.4 0.6,0.4 0.4,0.6 								"/>
							</defs>
							<defs>
								<polygon id="XMLID_26_" points="0.1,0.1 0,0.1 0.1,0 								"/>
							</defs>
							<clipPath id="XMLID_31_">
								<use xlink:href="#XMLID_27_"  style="overflow:visible;"/>
							</clipPath>
							<clipPath id="XMLID_32_" class="st2">
								<use xlink:href="#XMLID_26_"  style="overflow:visible;"/>
							</clipPath>
							<defs>
								<filter id="Adobe_OpacityMaskFilter" filterUnits="userSpaceOnUse">
									<feColorMatrix  type="matrix" values="1 0 0 0 0  0 1 0 0 0  0 0 1 0 0  0 0 0 1 0"/>
								</filter>
							</defs>
							<mask maskUnits="userSpaceOnUse" id="mask-2_1_">
								<g id="XMLID_29_" class="st3">
									<circle id="path-1_2_" class="st4" cx="75.1" cy="75.1" r="74.9"/>
								</g>
							</mask>
							<g id="Group_1_" class="st5">
								<g id="XMLID_30_" transform="translate(257.000000, 330.000000)">
								</g>
							</g>
						</g>
					</g>
					<g id="Group-2-Clipped_1_">
						<g id="path-1_1_">
						</g>
						<defs>
							<filter id="Adobe_OpacityMaskFilter_1_" filterUnits="userSpaceOnUse" x="0.3" y="0.3" width="149.7" height="149.7">
								<feColorMatrix  type="matrix" values="1 0 0 0 0  0 1 0 0 0  0 0 1 0 0  0 0 0 1 0"/>
							</filter>
						</defs>
						<mask maskUnits="userSpaceOnUse" x="0.3" y="0.3" width="149.7" height="149.7" id="mask-4_1_">
							<g id="XMLID_21_" class="st6">
								<circle id="path-3_1_" class="st0" cx="75.1" cy="75.1" r="74.9"/>
							</g>
						</mask>
						<g id="Group-2_1_" class="st7">
							<path id="XMLID_24_" class="st8" d="M142.9,113.3"/>
							<path id="XMLID_23_" class="st8" d="M136,127.7c1-0.7,2-1.5,2.8-2.5"/>
							<path id="XMLID_22_" class="st8" d="M148.3,95.8c0.1-0.9,0.7-1.7,1.7-1.8V0.3H0.3V150h84.8c0.1-0.1,0.2-0.1,0.4-0.2
								c3.5-1,7.2-1.5,10.7-2.2c1.8-0.3,3.5-0.9,5.3-1.2c1.7-0.4,3.4-0.5,5.2-0.7c2.7-0.2,5.5-0.3,8-1.4c1.4-0.6,2.7-1.6,4-2.4
								c1.4-0.9,2.8-1.8,4.1-2.7c1.2-0.8,2.5-1.6,3.6-2.6c1.1-1,2.1-2.1,3-3.2"/>
							<path id="Shape_3_" class="st0" d="M75.4,90.7c2.9-1.7,5.8-3.4,8.7-5c0.6,0.8,1.1,1.6,1.7,2.3c3,3.6,7.7,5.1,12.1,3.6
								c1.9-0.6,3.4-1.7,3.8-3.8c0.4-2.3-0.5-4.1-2.5-5.2c-2.3-1.2-4.6-2.3-7-3.4c-3.1-1.4-6.2-2.8-8.7-5.1
								c-4.6-4.2-5.8-9.5-4.3-15.3c1.5-5.7,5.7-8.8,11.3-9.8c4.5-0.8,9-0.5,13.1,1.9c2.5,1.5,4.3,3.6,5.8,6.3
								c-2.8,1.8-5.5,3.6-8.3,5.3c-0.4-0.6-0.8-1.2-1.2-1.7c-1.7-2.3-4-3.2-6.8-2.7c-1.8,0.3-3.1,1.2-3.6,3
								c-0.5,1.8-0.3,3.6,1.3,4.8c1.6,1.2,3.4,2.1,5.2,2.9c3.6,1.7,7.3,3.2,10.6,5.5c6.4,4.5,7.2,12.7,4.8,18.2
								c-2,4.6-5.7,7.1-10.4,8.2c-7.3,1.7-14.3,0.9-20.4-3.8C78.4,95.5,76.7,93.3,75.4,90.7L75.4,90.7L75.4,90.7z"/>
							<path id="Shape_2_" class="st0" d="M37.9,91.8c2.9-1.8,5.7-3.5,8.7-5.3c0.7,1,1.2,1.9,1.9,2.8c1.5,2,3.5,2.8,5.9,2.6
								c2.9-0.3,4.4-2,4.6-5.2c0-0.8,0-1.5,0-2.2V50.7c0-1.5,0-1.5,1.6-1.5c2.7,0,5.4,0,8.1,0c0.8,0,1.2,0.2,1.2,1.1
								c0,11.9,0,23.8-0.1,35.7c0,1.9-0.3,3.8-0.8,5.7c-1.2,4.5-4,7.6-8.5,9c-5.2,1.6-10.5,1.5-15.4-1
								C41.8,97.9,39.5,95.3,37.9,91.8L37.9,91.8L37.9,91.8z"/>
						</g>
					</g>
				</g>
			</g>
		</g>
	</g>
</g>
</svg>
