<!-- Generator: Adobe Illustrator 19.0.0, SVG Export Plug-In  -->
<svg version="1.1"
	 xmlns="http://www.w3.org/2000/svg" xmlns:xlink="http://www.w3.org/1999/xlink" xmlns:a="http://ns.adobe.com/AdobeSVGViewerExtensions/3.0/"
	 x="0px" y="0px" width="150px" height="150px" viewBox="0 0 150 150" style="enable-background:new 0 0 150 150;"
	 xml:space="preserve">
<style type="text/css">
	.st0{fill:#D8D8D8;}
	.st1{filter:url(#Adobe_OpacityMaskFilter);}
	.st2{fill:#FFFFFF;}
	.st3{mask:url(#mask-2_1_);}
	.st4{fill:#6082BB;}
	.st5{filter:url(#Adobe_OpacityMaskFilter_1_);}
	.st6{mask:url(#mask-2_6_);}
</style>
<defs>
</defs>
<g id="Page-1_1_">
	<g id="Artboard-1_1_">
	</g>
	<g id="Group_1_">
		<g id="Mask_1_">
			<circle id="path-1_2_" class="st0" cx="75" cy="75" r="75"/>
		</g>
		<defs>
			<filter id="Adobe_OpacityMaskFilter" filterUnits="userSpaceOnUse" x="0" y="0" width="150" height="150">
				<feColorMatrix  type="matrix" values="1 0 0 0 0  0 1 0 0 0  0 0 1 0 0  0 0 0 1 0"/>
			</filter>
		</defs>
		<mask maskUnits="userSpaceOnUse" x="0" y="0" width="150" height="150" id="mask-2_1_">
			<g id="XMLID_17_" class="st1">
				<circle id="path-1_1_" class="st2" cx="75" cy="75" r="75"/>
			</g>
		</mask>
		<g id="XMLID_15_" class="st3">
			<rect id="background_1_" class="st4" width="150" height="150"/>
			<g id="php_1_" transform="translate(187.000000, 358.000000)">
				<path id="Shape_6_" class="st2" d="M-159.6-260.1c0.8-3.9,1.4-7.3,2.1-10.8c1.5-7.8,3.1-15.7,4.5-23.6c0.2-1.2,0.7-1.6,1.9-1.6
					c4.7,0.1,9.4,0,14.1,0c0.8,0,1.7,0,2.5,0.2c6.6,1,9.8,5.4,8.9,12c-1.2,8.3-6.7,13.5-15.2,14.1c-2.6,0.2-5.2,0.1-7.8,0.1
					c-0.9,0-1.4,0.3-1.6,1.3c-0.4,2.2-0.9,4.5-1.3,6.7c-0.2,1.1-0.6,1.6-1.8,1.5C-155.2-260.1-157.3-260.1-159.6-260.1L-159.6-260.1
					z M-148.8-275.1c3.2-0.3,6.2-0.4,9.1-0.8c2.5-0.4,4.2-2.1,4.9-4.5c0.5-1.8,0.9-3.6,1-5.4c0.1-2.1-0.9-3.4-3-3.9
					c-1.6-0.4-3.3-0.4-5-0.4c-4-0.1-4,0-4.8,3.9C-147.3-282.7-148-279.2-148.8-275.1L-148.8-275.1z"/>
				<path id="Shape_5_" class="st2" d="M-98.7-260.1c0.8-4.4,1.6-8.4,2.4-12.4c1.4-7.3,2.8-14.6,4.2-21.9c0.2-1.2,0.6-1.6,1.8-1.6
					c4.7,0.1,9.4,0,14.1,0c0.6,0,1.3,0,2,0.1c6.9,0.7,10.5,5.3,9.5,12.2c-1.2,8.3-6.6,13.3-15.1,14c-2.6,0.2-5.2,0.1-7.8,0.1
					c-1,0-1.5,0.3-1.7,1.3c-0.4,2.2-0.9,4.4-1.2,6.5c-0.2,1.3-0.8,1.7-2,1.6C-94.5-260.2-96.5-260.1-98.7-260.1L-98.7-260.1z
					 M-87.8-275.3c2,0,3.6,0,5.2,0c6.5-0.1,10-3.8,9.8-10.3c-0.1-2.4-1-3.7-3.4-4.2c-1.6-0.3-3.4-0.4-5-0.4c-3.7,0-3.8,0-4.5,3.6
					C-86.4-282.9-87.1-279.3-87.8-275.3L-87.8-275.3z"/>
				<path id="Shape_1_" class="st2" d="M-108-269.5c0.6-3.3,1.2-6.3,1.8-9.3c0.5-2.3,1-4.7,1.3-7.1c0.5-2.9-0.4-3.9-3.2-4.1
					c-1.7-0.1-3.4,0-5-0.1c-1.7-0.1-2.3,0.4-2.6,2.1c-1,5.6-2.2,11.2-3.2,16.8c-0.3,1.3-0.7,1.8-2.1,1.7c-1.9-0.1-3.8,0-6,0
					c0.1-0.7,0.1-1.3,0.2-1.8c2.1-10.8,4.2-21.6,6.3-32.4c0.3-1.4,0.8-1.8,2.1-1.7c1.9,0.1,3.8,0,6.1,0c-0.6,3.2-1.2,6.2-1.8,9.4
					c0.9,0,1.6,0.1,2.3,0.1c3.2,0.1,6.4,0,9.5,0.5c4.4,0.6,6.3,3.2,5.7,7.6c-0.9,5.8-2.1,11.5-3.2,17.2c-0.1,0.4-0.8,1-1.3,1
					C-103.3-269.5-105.5-269.5-108-269.5L-108-269.5z"/>
			</g>
		</g>
	</g>
</g>
</svg>
