<?xml version="1.0" encoding="utf-8"?>
<!-- Generator: Adobe Illustrator 21.0.0, SVG Export Plug-In . SVG Version: 6.00 Build 0)  -->
<svg version="1.1" id="Capa_1" xmlns="http://www.w3.org/2000/svg" xmlns:xlink="http://www.w3.org/1999/xlink" x="0px" y="0px"
	 viewBox="0 0 150 150.8" style="enable-background:new 0 0 150 150.8;" xml:space="preserve">
<style type="text/css">
	.st0{fill:#FFFFFF;}
	.st1{fill:#D8D8D8;}
	.st2{fill:#282C34;}
	.st3{display:none;fill-opacity:0.2;stroke:#979797;}
</style>
<g id="XMLID_25_">
	<circle id="path-1_1_" class="st0" cx="75" cy="75" r="75"/>
</g>
<g id="Page-1_1_">
	<g id="Artboard-1_1_">
		<g id="Group_1_">
			<g id="Mask_1_">
				<path id="XMLID_37_" class="st1" d="M78.1,149.9c40-1.6,71.9-34.6,71.9-74.9c0-41.4-33.6-75-75-75S0,33.6,0,75
					c0,41.1,33,74.4,73.9,75C75.3,149.9,76.7,149.9,78.1,149.9z"/>
			</g>
			<g id="XMLID_21_">
				<rect x="-2.5" y="-2.1" class="st2" width="155" height="155"/>
				<path id="XMLID_32_" class="st3" d="M70.9,150.3c2.9-0.4,5.8-0.4,8.8-0.3c2.8,0.1,5.5,0.1,8.3-0.2c5.6-0.8,11.2-2,16.4-4.1
					c3.6-1.6,7.1-3.7,10.4-6c3.2-2.3,6.9-3.9,10.2-6.2c1.4-1.2,2.6-2.6,3.7-4c1.8-2.4,3.5-4.8,5.5-7.1c1.6-1.8,3.2-3.6,4.7-5.4
					c0.1-0.2,0.2-0.3,0.3-0.5c0.5-1.4,1-2.8,1.8-4c0.7-1.1,1.6-2.2,2.6-3L124.1,90l-3.5-5.3l-9.1-2.3l-7.6,0.6l-3.2,1.8l-1.5-4.7
					l-4.7-4.7l-3.8,7l-4.1,3.8l-3.8-8.5l-4.7,5.8l-5.3,12.9l-3.2,1.5l-1.2-4.7H65L61.8,99l-2.9,0.3l-0.6-4.1V83.4L49,87.5l-0.6,11.7
					l-4.7,7.6h-8.1l-5.9-3.5l0.3,7.3L69.3,150C69.8,150,70.4,150.1,70.9,150.3z"/>
				<title>ionicons-v5_logos</title>
				<path class="st0" d="M121.4,52.3L121.4,52.3c-1.5-0.5-3-1-4.6-1.4c0.3-1,0.5-2.1,0.7-3.1c3.5-16.8,1.2-30.4-6.5-34.9
					c-7.4-4.3-19.5,0.2-31.8,10.9c-1.2,1.1-2.4,2.1-3.5,3.3c-0.8-0.7-1.6-1.5-2.4-2.2C60.6,13.4,47.7,8.6,40,13.1
					c-7.4,4.3-9.6,17-6.5,33c0.3,1.6,0.7,3.1,1.1,4.7c-1.8,0.5-3.6,1.1-5.3,1.7c-15,5.3-24.6,13.5-24.6,22c0,8.8,10.3,17.7,26,23
					c1.3,0.4,2.6,0.8,3.8,1.2c-0.4,1.7-0.8,3.4-1.1,5.1c-3,15.7-0.7,28.1,6.7,32.4c7.6,4.4,20.4-0.1,32.9-11c1-0.9,2-1.8,3-2.7
					c1.2,1.2,2.5,2.4,3.8,3.5c12.1,10.4,24,14.6,31.4,10.3c7.6-4.4,10.1-17.8,6.9-34.1c-0.2-1.2-0.5-2.5-0.9-3.8
					c0.9-0.3,1.8-0.5,2.6-0.8c16.3-5.4,26.9-14.1,26.9-23.1C146.7,65.9,136.8,57.6,121.4,52.3z M83.3,28.4
					c10.5-9.1,20.3-12.8,24.7-10.2l0,0c4.8,2.7,6.6,13.8,3.6,28.4c-0.2,0.9-0.4,1.9-0.6,2.8c-6.3-1.4-12.6-2.4-19-3
					c-3.7-5.3-7.7-10.3-12-15C81.1,30.3,82.2,29.3,83.3,28.4L83.3,28.4z M46.6,81.8c1.3,2.5,2.6,4.9,4,7.4s2.9,4.9,4.5,7.3
					c-4.4-0.5-8.8-1.2-13.1-2.1C43.3,90.3,44.8,86.1,46.6,81.8z M46.6,67.5c-1.8-4.2-3.3-8.3-4.5-12.3c4.1-0.9,8.4-1.7,12.9-2.2
					c-1.5,2.4-3,4.7-4.4,7.2C49.2,62.5,47.9,65,46.6,67.5L46.6,67.5z M49.8,74.6c1.9-3.9,3.9-7.7,6-11.5l0,0c2.2-3.7,4.5-7.4,6.9-11
					c4.2-0.3,8.6-0.5,12.9-0.5c4.4,0,8.7,0.2,13,0.5c2.4,3.6,4.7,7.2,6.8,10.9c2.2,3.7,4.2,7.5,6.1,11.4c-1.9,3.9-3.9,7.8-6.1,11.5
					l0,0c-2.2,3.7-4.4,7.4-6.8,11c-4.2,0.3-8.6,0.5-13,0.5s-8.7-0.1-12.9-0.4c-2.5-3.6-4.8-7.3-6.9-11
					C53.7,82.3,51.7,78.5,49.8,74.6L49.8,74.6z M100.8,89.1c1.4-2.5,2.8-5,4.1-7.5l0,0c1.8,4.1,3.4,8.3,4.8,12.5
					c-4.4,1-8.8,1.7-13.2,2.3C97.9,94,99.3,91.5,100.8,89.1z M104.8,67.5c-1.3-2.5-2.7-5-4.1-7.4l0,0c-1.4-2.4-2.8-4.8-4.3-7.1
					c4.5,0.6,8.9,1.3,12.9,2.3C108,59.4,106.5,63.5,104.8,67.5z M75.8,35.7L75.8,35.7c3,3.2,5.7,6.6,8.4,10.1
					c-5.6-0.3-11.2-0.3-16.8,0C70.1,42.2,72.9,38.8,75.8,35.7z M43,18.4c4.8-2.8,15.3,1.2,26.3,11c0.7,0.6,1.4,1.3,2.1,2
					c-4.4,4.7-8.4,9.7-12.1,15c-6.4,0.6-12.7,1.6-19,3c-0.4-1.5-0.7-2.9-1-4.4l0,0C36.8,31.3,38.6,21,43,18.4z M36.1,92.9
					c-1.2-0.3-2.4-0.7-3.5-1.1C25.7,89.4,20,86.3,16,82.9c-3.5-3-5.3-6-5.3-8.5c0-5.2,7.7-11.8,20.6-16.3c1.6-0.6,3.2-1.1,4.9-1.5
					c1.9,6.1,4.2,12.1,6.9,18C40.4,80.6,38.1,86.6,36.1,92.9z M69,120.6c-5.5,4.8-11,8.3-15.9,10l0,0c-4.4,1.5-7.9,1.6-10,0.4
					c-4.5-2.6-6.3-12.6-3.8-26c0.3-1.6,0.6-3.2,1-4.7c6.3,1.4,12.7,2.3,19.1,2.8c3.7,5.3,7.8,10.3,12.2,15.1
					C70.8,118.9,69.9,119.8,69,120.6z M75.9,113.7c-2.9-3.1-5.7-6.5-8.5-10.2c2.7,0.1,5.5,0.2,8.3,0.2c2.9,0,5.8-0.1,8.6-0.2
					C81.7,107,78.9,110.4,75.9,113.7L75.9,113.7z M112.8,122.2c-0.8,4.6-2.5,7.6-4.7,8.8c-4.5,2.6-14-0.8-24.4-9.7
					c-1.2-1-2.4-2.1-3.6-3.3c4.3-4.8,8.3-9.8,11.9-15.1c6.5-0.5,12.9-1.5,19.2-3c0.3,1.2,0.5,2.3,0.8,3.4l0,0
					C113.5,110.6,113.7,117.1,112.8,122.2z M117.9,91.8L117.9,91.8c-0.8,0.3-1.6,0.5-2.4,0.7c-2-6.2-4.4-12.2-7.2-18
					c2.7-5.8,5-11.7,6.9-17.8c1.5,0.4,2.9,0.9,4.2,1.3c13.1,4.5,21.2,11.2,21.2,16.4C140.6,80,132,87.1,117.9,91.8z"/>
				<path class="st0" d="M74.7,87.2c7,0,12.7-5.7,12.8-12.7c0-7-5.7-12.7-12.7-12.8c-7,0-12.7,5.7-12.8,12.7l0,0
					C62,81.5,67.7,87.2,74.7,87.2L74.7,87.2z"/>
			</g>
		</g>
	</g>
</g>
</svg>
