<!-- Generator: Adobe Illustrator 19.0.0, SVG Export Plug-In  -->
<svg version="1.1"
	 xmlns="http://www.w3.org/2000/svg" xmlns:xlink="http://www.w3.org/1999/xlink" xmlns:a="http://ns.adobe.com/AdobeSVGViewerExtensions/3.0/"
	 x="0px" y="0px" width="150px" height="150.8px" viewBox="0 0 150 150.8" style="enable-background:new 0 0 150 150.8;"
	 xml:space="preserve">
<style type="text/css">
	.st0{fill:#D8D8D8;}
	.st1{filter:url(#Adobe_OpacityMaskFilter);}
	.st2{fill:#FFFFFF;}
	.st3{mask:url(#mask-2_1_);}
	.st4{fill:#CD6799;}
	.st5{display:none;fill-opacity:0.2;stroke:#979797;}
	.st6{filter:url(#Adobe_OpacityMaskFilter_1_);}
	.st7{mask:url(#mask-2_6_);}
</style>
<defs>
</defs>
<g id="Page-1_1_">
	<g id="Artboard-1_1_">
		<g id="Group_1_">
			<g id="Mask_1_">
				<path id="XMLID_37_" class="st0" d="M78.1,149.9c40-1.6,71.9-34.6,71.9-74.9c0-41.4-33.6-75-75-75S0,33.6,0,75
					c0,41.1,33,74.4,73.9,75C75.3,149.9,76.7,149.9,78.1,149.9z"/>
			</g>
			<defs>
				<filter id="Adobe_OpacityMaskFilter" filterUnits="userSpaceOnUse" x="0" y="0" width="150" height="150.8">
					<feColorMatrix  type="matrix" values="1 0 0 0 0  0 1 0 0 0  0 0 1 0 0  0 0 0 1 0"/>
				</filter>
			</defs>
			<mask maskUnits="userSpaceOnUse" x="0" y="0" width="150" height="150.8" id="mask-2_1_">
				<g id="XMLID_25_" class="st1">
					<circle id="path-1_1_" class="st2" cx="75" cy="75" r="75"/>
				</g>
			</mask>
			<g id="XMLID_21_" class="st3">
				<path id="XMLID_36_" class="st4" d="M79.7,150c0.1,0,0.3,0,0.4,0H85c1,0,2-0.1,3.1-0.2c5.6-0.8,11.2-2,16.4-4.1
					c3.6-1.6,7.1-3.7,10.4-6c3.2-2.3,6.9-3.9,10.2-6.2c1.4-1.2,2.6-2.6,3.7-4c1.8-2.4,3.5-4.8,5.5-7.1c1.6-1.8,3.2-3.6,4.7-5.4
					c0.1-0.2,0.2-0.3,0.3-0.5c0.5-1.4,1-2.8,1.8-4c1.1-1.6,2.4-3.1,4.2-4c1.5-0.8,3.1-1.3,4.8-1.3V0H0v150h73.8
					C75.7,149.9,77.7,149.9,79.7,150z"/>
				<path id="XMLID_32_" class="st5" d="M70.9,150.3c2.9-0.4,5.8-0.4,8.8-0.3c2.8,0.1,5.5,0.1,8.3-0.2c5.6-0.8,11.2-2,16.4-4.1
					c3.6-1.6,7.1-3.7,10.4-6c3.2-2.3,6.9-3.9,10.2-6.2c1.4-1.2,2.6-2.6,3.7-4c1.8-2.4,3.5-4.8,5.5-7.1c1.6-1.8,3.2-3.6,4.7-5.4
					c0.1-0.2,0.2-0.3,0.3-0.5c0.5-1.4,1-2.8,1.8-4c0.7-1.1,1.6-2.2,2.6-3l-19.5-19.5l-3.5-5.3l-9.1-2.3l-7.6,0.6l-3.2,1.8l-1.5-4.7
					l-4.7-4.7l-3.8,7l-4.1,3.8l-3.8-8.5l-4.7,5.8l-5.3,12.9l-3.2,1.5l-1.2-4.7H65l-3.2,5.8l-2.9,0.3l-0.6-4.1V83.4l-9.3,4.1
					l-0.6,11.7l-4.7,7.6h-8.1l-5.9-3.5l0.3,7.3L69.3,150C69.8,150,70.4,150.1,70.9,150.3z"/>
				<path id="sass_2_" class="st2" d="M71.7,37.6c0.9,0.1,1.8,0.2,2.8,0.2c2.2,0.2,4.2,0.8,6.3,1.6c1.8,0.7,3.4,1.8,4.7,3.2
					c1.4,1.5,2.2,3.2,2.5,5.2c0.1,0.9,0.2,1.9,0.1,2.8c-0.1,1.9-0.6,3.8-1.3,5.5c-1,2.4-2.5,4.6-4.3,6.6c-2.3,2.5-5,4.6-8.1,6
					c-2.4,1.1-4.9,1.9-7.5,2.5c-1.2,0.2-2.4,0.4-3.6,0.6c-1.4,0.2-2.8,0.2-4.2,0.2c-1.6,0-3.2-0.2-4.7-0.7c-2-0.6-3.8-1.7-5.2-3.4
					c-0.5-0.6-0.8-1.3-1-2c0-0.2,0-0.4,0.1-0.6c0.2-0.3,0.5-0.3,0.7-0.1c0.3,0.3,0.6,0.6,1,0.9c1.1,0.9,2.3,1.5,3.6,1.9
					c1,0.3,2,0.5,3,0.5c0.6,0,1.2,0.1,1.8,0c0.8,0,1.5-0.1,2.3-0.2c2-0.3,4-0.7,5.9-1.4c3.4-1.2,6.5-2.8,9.3-5.1
					c2.4-1.9,4.4-4.2,5.7-7c0.5-1.1,0.9-2.2,1-3.4c0.2-1.5,0.1-2.9-0.7-4.2c-0.6-1-1.5-1.6-2.4-2.1c-1.3-0.7-2.7-1.1-4.2-1.3
					c-1.1-0.2-2.2-0.3-3.3-0.2c-0.7,0-1.4,0-2.1,0c-1,0.1-1.9,0.2-2.9,0.3c-1.6,0.2-3.2,0.5-4.7,0.9c-2.2,0.6-4.4,1.3-6.5,2.2
					c-4.1,1.7-7.9,3.8-11.6,6.2c-2.5,1.7-4.9,3.5-7,5.7c-1.4,1.5-2.6,3-3.5,4.8c-0.7,1.4-1.1,2.9-1.2,4.4c-0.2,2.5,0.6,4.7,2.1,6.7
					c1.2,1.6,2.6,2.9,4.1,4.2c1.9,1.6,3.9,3.1,5.8,4.6c1.2,1,2.4,2,3.5,3.2c0,0,0,0.1,0.1,0.1c0.5-0.3,1.1-0.6,1.6-0.8
					c2.7-1.5,5.5-3,8.2-4.5c0.1-0.1,0.2-0.2,0.3-0.3c1.6-2.2,3.6-3.9,6.1-5.1c0.6-0.3,1.2-0.5,1.9-0.6c0.8-0.1,1.7-0.1,2.5,0.3
					c0.8,0.5,1.2,1.3,1.4,2.2c0.2,0.8,0.2,1.5,0.1,2.3c-0.1,0.5-0.1,1-0.1,1.5c0.1-0.1,0.3-0.2,0.5-0.3c0.3-0.1,0.6-0.2,0.9-0.3
					c0.5-0.1,1,0.1,1.4,0.4c0.7,0.4,0.8,0.9,0.6,1.6c-0.5,2-1,3.9-1.5,5.9c-0.4,1.4-0.7,2.9-1,4.3c-0.1,0.8-0.2,1.5,0,2.3
					c0,0,0,0.1,0,0.1c0,0,0,0,0.1,0.1c0.1-0.1,0.2-0.1,0.2-0.2c0.4-0.6,0.8-1.3,1.1-1.9c1.5-3.2,3-6.4,4.5-9.7
					c1.1-2.5,2.2-5.1,3.4-7.6c0.5-1.1,0.8-2.3,1.1-3.4c0.1-0.6,0.4-0.9,1-1c0.6-0.1,1.2-0.3,1.7-0.3c0.8-0.1,1.7-0.2,2.5,0.1
					c0.3,0.1,0.5,0.2,0.7,0.4c0.3,0.2,0.4,0.5,0.2,0.9c-0.3,1-0.7,2-0.9,3.1c-0.3,1.2-0.3,2.3-0.2,3.5c0.1,1.7,0.7,3.1,1.5,4.6
					c0,0,0,0,0.1,0.1c0.2-0.3,0.3-0.5,0.5-0.8c1.7-2.8,3.3-5.6,4.7-8.5c0.6-1.1,1-2.3,1.2-3.6c0.1-0.6,0.3-1.1,0.5-1.7
					c0.1-0.2,0.2-0.4,0.4-0.5c0.6-0.3,1.2-0.4,1.8-0.5c0.8-0.1,1.6-0.1,2.4-0.1c0.5,0,0.9,0.2,1.3,0.5c0.2,0.2,0.3,0.5,0.2,0.8
					c-0.3,1.1-0.7,2.1-1,3.2c-0.3,0.9-0.3,1.9-0.2,2.8c0.1,1.6,0.4,3.1,1.2,4.6c0.3,0.6,0.6,1.2,1,1.8c0,0.1,0.1,0.1,0.1,0.2
					c0.4-0.2,0.9-0.4,1.3-0.6c1.8-0.7,3.6-1.2,5.5-1.4c0.5-0.1,1.1-0.1,1.6-0.1c0.3,0,0.6-0.1,1,0c2.7,0.1,5.3,0.6,7.8,1.9
					c2.4,1.3,4.2,3.1,5.2,5.7c0.4,1.1,0.6,2.3,0.6,3.4c0,1-0.2,2-0.7,2.9c-0.8,1.5-2,2.5-3.6,3.1c-0.3,0.1-0.6,0.1-0.9,0.2
					c-0.1,0-0.3-0.1-0.3-0.2c-0.1-0.1-0.1-0.3,0.1-0.4c0.2-0.1,0.4-0.3,0.5-0.4c0.8-0.5,1.5-1.1,2-1.9c1-1.4,1.1-3,0.5-4.6
					c-0.7-1.9-2-3.3-3.8-4.4c-1.5-0.9-3.2-1.4-4.9-1.7c-1.3-0.2-2.5-0.3-3.8-0.3c-2.3,0-4.6,0.3-6.7,1.2c-0.2,0.1-0.2,0.1-0.2,0.4
					c0.2,0.8,0.5,1.6,0.6,2.4c0.4,2.2-0.3,4.1-1.9,5.7c-1.4,1.5-3.1,2.6-5,3.2c-0.6,0.2-1.3,0.5-1.9,0.6c-1.4,0.2-2.5-0.6-2.8-2
					c-0.1-0.9,0.1-1.7,0.3-2.5c0.4-1.6,1.3-2.9,2.3-4.2c0.9-1.2,1.9-2.2,3.1-3.2c0.1-0.1,0.1-0.2,0.1-0.3c-0.5-1-1-1.9-1.4-2.9
					c-0.6-1.5-0.9-3-1.2-4.5c0-0.1,0-0.2-0.1-0.4c-0.1,0.1-0.1,0.2-0.1,0.3c-1.6,3.2-3.4,6.4-5.5,9.3c-0.3,0.4-0.3,0.7-0.1,1.2
					c0.5,1,0.8,2.1,0.9,3.2c0.2,2.5-0.5,4.7-2.5,6.4c-1.1,0.9-2.3,1.5-3.5,2c-1.1,0.5-2.3,0.7-3.4,0.9c-0.7,0.1-1.4,0.1-2.2-0.1
					c-0.7-0.2-1.1-0.6-1.3-1.2c-0.1-0.5,0-1,0.3-1.4c0.6-0.8,1.1-1.6,1.8-2.3c1.4-1.7,2.8-3.4,4.2-5.1c0.4-0.4,0.7-0.9,1-1.3
					c0-0.1,0-0.2,0-0.3c-0.5-1-1-2-1.5-3.1c-0.6-1.3-0.9-2.8-1.3-4.2c-0.1-0.4-0.2-0.8-0.2-1.2c-0.1,0.1-0.1,0.2-0.1,0.3
					c-1.3,3.3-2.7,6.5-4.3,9.7c-1.4,2.8-2.9,5.4-4.3,8.2c-0.6,1.1-1.4,2.1-2.3,2.9c-0.5,0.4-1,0.7-1.7,0.7c-1,0-1.7-0.5-2.1-1.3
					c-0.4-0.6-0.6-1.3-0.6-2.1c-0.1-1-0.1-2.1-0.1-3.1c0-0.4,0.1-0.8,0.1-1.2c0,0,0-0.1,0-0.2c0,0.1-0.1,0.1-0.1,0.2
					c-0.9,2.1-1.8,4.1-2.8,6.1c-0.4,0.7-0.8,1.3-1.3,1.9c-0.8,0.8-1.8,1.1-2.9,1c-1.2-0.1-1.9-0.8-2.6-1.7c-0.9-1.3-1.4-2.8-1.8-4.3
					c-0.3-1.3-0.5-2.5-0.4-3.8c0.1-2.3,0.5-4.6,1.2-6.9c0-0.1,0-0.2,0.1-0.3c-1.9,1-3.8,2.1-5.6,3.2c0.2,0.7,0.5,1.4,0.7,2.2
					c0.2,0.7,0.3,1.3,0.4,2c0.1,0.8,0.2,1.7,0.1,2.6c-0.1,4-1.4,7.6-4,10.6c-2.2,2.5-5,4.3-8.3,5.2c-0.9,0.2-1.9,0.4-2.9,0.4
					c-0.1,0-0.1,0-0.1,0H35c-0.1,0-0.1,0-0.2-0.1c-0.6-0.1-1.3-0.2-1.9-0.3c-0.9-0.1-1.8-0.5-2.4-1.1c-1.3-1.3-1.9-2.9-2.1-4.7
					c-0.1-0.8,0-1.7,0.2-2.6c0.5-2.3,1.5-4.2,3.1-5.9c1.3-1.4,2.8-2.6,4.3-3.7c2.5-1.8,5.2-3.4,7.9-4.7c0.3-0.1,0.6-0.3,0.9-0.5
					c-0.1-0.1-0.2-0.2-0.3-0.3c-1.4-1.1-2.9-2.1-4.3-3.2c-2.3-1.6-4.6-3.1-6.7-4.9c-1.9-1.6-3.8-3.3-5.3-5.3c-1.2-1.5-2.1-3.2-2.6-5
					c-0.1-0.5-0.2-1-0.3-1.5v-1.4c0,0,0-0.1,0-0.1c0.1-0.6,0.2-1.1,0.3-1.7c0.5-2.2,1.5-4.1,2.7-6c1.9-2.8,4.2-5.3,6.7-7.5
					c3.3-2.8,6.8-5.1,10.6-7.2c2.6-1.4,5.3-2.7,8.1-3.8c3.2-1.3,6.4-2.4,9.8-3c1.9-0.3,3.8-0.5,5.7-0.6
					C69.9,37.6,70.8,37.6,71.7,37.6L71.7,37.6z M47.1,91c-0.2,0.1-0.3,0.2-0.5,0.3c-2.9,1.7-5.6,3.5-8.1,5.6
					c-1.5,1.3-2.7,2.8-3.4,4.6c-0.4,1.1-0.7,2.2-0.5,3.5c0.1,0.8,0.5,1.5,1.4,1.8c0.5,0.1,1,0.2,1.5,0.1c1-0.1,2-0.4,3-0.9
					c1.9-0.9,3.4-2.3,4.7-3.9c1.6-2.2,2.5-4.7,2.5-7.4c0-0.8-0.1-1.6-0.2-2.3C47.3,91.9,47.2,91.5,47.1,91L47.1,91z M59.5,93.1
					c0,0.6,0.1,1.2,0.1,1.8c0.1,0.7,0.2,1.3,0.5,1.9c0.3,0.6,0.7,0.7,1.2,0.1c0.4-0.5,0.8-1,1-1.6c0.7-1.5,1.3-3.1,2-4.6
					c1-2.5,2-5,2.7-7.6c0.3-1,0.6-2,0.6-3.1c0-0.4-0.2-0.6-0.5-0.6c-0.3,0-0.7,0.1-1,0.2c-1,0.4-1.7,1.1-2.4,1.9
					c-0.7,0.9-1.3,1.9-1.8,2.9C60.4,87.1,59.6,90,59.5,93.1L59.5,93.1z M99.5,87.2c-0.1,0.1-0.1,0.1-0.2,0.1
					c-1.7,1.6-2.9,3.5-3.6,5.7c-0.1,0.3-0.1,0.6-0.1,0.9c0,0.3,0.1,0.3,0.4,0.2c0.1,0,0.2-0.1,0.2-0.1c1.3-0.6,2.4-1.4,3-2.7
					c0.3-0.6,0.5-1.3,0.5-2.1S99.7,87.9,99.5,87.2L99.5,87.2z M81.3,97.4c0,0,0,0.1,0.1,0.1c0.2,0,0.4,0,0.6-0.1
					c0.5-0.3,1-0.6,1.5-1c1-0.8,1.9-1.7,2.4-2.9c0.3-0.6,0.4-1.3,0.4-2C84.8,93.7,83,95.6,81.3,97.4L81.3,97.4z"/>
			</g>
		</g>
	</g>
</g>
</svg>
